<?xml version="1.0" encoding="UTF-8"?>
<svg width="256px" height="256px" viewBox="0 0 256 256" version="1.1" xmlns="http://www.w3.org/2000/svg" xmlns:xlink="http://www.w3.org/1999/xlink">
    <!-- Generator: Sketch 44.1 (41455) - http://www.bohemiancoding.com/sketch -->
    <title>close-thin</title>
    <desc>Created with Sketch.</desc>
    <defs></defs>
    <g id="Icons" stroke="none" stroke-width="1" fill="none" fill-rule="evenodd">
        <g id="close-thin" fill="#000000">
            <path d="M128,104.4 L37.1355339,13.5355339 L37.1355339,13.5355339 C35.1829124,11.5829124 32.0170876,11.5829124 30.0644661,13.5355339 L13.5355339,30.0644661 L13.5355339,30.0644661 C11.5829124,32.0170876 11.5829124,35.1829124 13.5355339,37.1355339 L104.4,128 L13.5355339,218.864466 L13.5355339,218.864466 C11.5829124,220.817088 11.5829124,223.982912 13.5355339,225.935534 L30.0644661,242.464466 L30.0644661,242.464466 C32.0170876,244.417088 35.1829124,244.417088 37.1355339,242.464466 L128,151.6 L218.864466,242.464466 L218.864466,242.464466 C220.817088,244.417088 223.982912,244.417088 225.935534,242.464466 L242.464466,225.935534 L242.464466,225.935534 C244.417088,223.982912 244.417088,220.817088 242.464466,218.864466 L151.6,128 L242.464466,37.1355339 L242.464466,37.1355339 C244.417088,35.1829124 244.417088,32.0170876 242.464466,30.0644661 L225.935534,13.5355339 L225.935534,13.5355339 C223.982912,11.5829124 220.817088,11.5829124 218.864466,13.5355339 L128,104.4 Z" id="icon-close-thin"></path>
        </g>
    </g>
</svg>