<?xml version="1.0" encoding="UTF-8"?>
<svg width="256px" height="256px" viewBox="0 0 256 256" version="1.1" xmlns="http://www.w3.org/2000/svg" xmlns:xlink="http://www.w3.org/1999/xlink">
    <!-- Generator: Sketch 52.6 (67491) - http://www.bohemiancoding.com/sketch -->
    <title>heart-o</title>
    <desc>Created with Sketch.</desc>
    <g id="heart-o" stroke="none" stroke-width="1" fill="none" fill-rule="evenodd">
        <path d="M218.116413,43.6103959 C227.157221,51.1917362 233.427455,60.5226236 236.927121,71.603045 C240.426788,82.6834664 240.937158,93.8367875 238.458225,105.063008 C235.979293,116.289229 230.656887,125.984595 222.490997,134.14912 L138.061541,221.626149 C135.14515,224.542052 131.791308,226 128,226 C124.208692,226 120.85485,224.542052 117.938459,221.626149 L33.5090034,134.586505 C25.3431125,126.130395 20.0207075,116.289229 17.5417748,105.063008 C15.0628421,93.8367875 15.5732123,82.6834664 19.0728789,71.603045 C22.5725454,60.5226236 28.7698738,51.1917362 37.6648574,43.6103959 C46.559841,36.0290557 56.4026531,31.6552043 67.1932938,30.4888417 C76.8173768,29.3224791 86.587277,30.6346345 96.5030011,34.425308 C105.543809,37.9243891 113.126417,42.8814185 119.250834,49.2964028 L128,58.4814907 L136.749166,49.2964028 C144.040141,41.7150625 152.570578,36.3206413 162.340478,33.1131525 C172.110378,29.9056637 181.95319,29.1766863 191.868914,30.9262268 C201.784638,32.6757674 210.533805,36.903826 218.116413,43.6103959 Z M212.429455,124.526647 C218.262231,118.694847 222.272267,111.477993 224.459559,102.876083 C226.646851,94.2741726 226.573939,85.8909618 224.24083,77.726437 C221.61608,68.3955562 216.585309,60.5955167 209.148518,54.3263319 C201.711727,48.0571471 193.47293,44.630959 184.432123,44.0477811 C177.141149,43.7561888 169.704357,45.3599365 162.121749,48.8590176 C155.705691,51.4833285 150.602015,54.9824096 146.810708,59.356261 L128,78.6012073 L109.189292,59.356261 C105.10635,54.9824096 100.002668,51.3375357 93.8782512,48.4216325 C86.2956426,44.9225514 78.8588512,43.4646031 71.567877,44.0477811 C62.5270696,44.630959 54.2882735,48.0571471 46.8514821,54.3263319 C39.4146907,60.5955167 34.38392,68.3955562 31.7591701,77.726437 C29.4260613,85.8909618 29.3531494,94.2741726 31.5404409,102.876083 C33.7277325,111.477993 37.7377693,118.694847 43.5705447,124.526647 L128,212.003675 L212.429455,124.526647 Z" fill="#000000"></path>
    </g>
</svg>