<?xml version="1.0" encoding="UTF-8"?>
<svg width="256px" height="256px" viewBox="0 0 256 256" version="1.1" xmlns="http://www.w3.org/2000/svg" xmlns:xlink="http://www.w3.org/1999/xlink">
    <!-- Generator: Sketch 52.6 (67491) - http://www.bohemiancoding.com/sketch -->
    <title>heart</title>
    <desc>Created with Sketch.</desc>
    <g id="heart" stroke="none" stroke-width="1" fill="none" fill-rule="evenodd">
        <path d="M218.116413,43.6103959 C227.157221,51.1917362 233.427455,60.5226236 236.927121,71.603045 C240.426788,82.6834664 240.937158,93.8367875 238.458225,105.063008 C235.979293,116.289229 230.656887,125.984595 222.490997,134.14912 L138.061541,221.626149 C135.14515,224.542052 131.791308,226 128,226 C124.208692,226 120.85485,224.542052 117.938459,221.626149 L33.5090034,134.586505 C25.3431125,126.130395 20.0207075,116.289229 17.5417748,105.063008 C15.0628421,93.8367875 15.5732123,82.6834664 19.0728789,71.603045 C22.5725454,60.5226236 28.8427791,51.1917362 37.8835865,43.6103959 C45.7578363,36.903826 54.6528198,32.6757674 64.5685439,30.9262268 C74.484268,29.1766863 84.2541682,29.9056637 93.8782512,33.1131525 C103.502334,36.3206413 111.959859,41.7150625 119.250834,49.2964028 L128,58.0441056 L136.749166,49.2964028 C144.040141,41.7150625 152.497666,36.3206413 162.121749,33.1131525 C171.745832,29.9056637 181.515732,29.1766863 191.431456,30.9262268 C201.34718,32.6757674 210.242164,36.903826 218.116413,43.6103959 Z" fill="#000000"></path>
    </g>
</svg>