<?xml version="1.0" encoding="UTF-8"?>
<svg width="256px" height="256px" viewBox="0 0 256 256" version="1.1" xmlns="http://www.w3.org/2000/svg" xmlns:xlink="http://www.w3.org/1999/xlink">
    <!-- Generator: Sketch 52.4 (67378) - http://www.bohemiancoding.com/sketch -->
    <title>user-plus-thin</title>
    <desc>Created with Sketch.</desc>
    <g id="user-plus-thin" stroke="none" stroke-width="1" fill="none" fill-rule="evenodd">
        <path d="M243.05,120.6 L210.6,120.6 L210.6,88.15 C210.6,86.5275 209.2725,85.2 207.65,85.2 L201.75,85.2 C200.1275,85.2 198.8,86.5275 198.8,88.15 L198.8,120.6 L166.35,120.6 C164.7275,120.6 163.4,121.9275 163.4,123.55 L163.4,129.45 C163.4,131.0725 164.7275,132.4 166.35,132.4 L198.8,132.4 L198.8,164.85 C198.8,166.4725 200.1275,167.8 201.75,167.8 L207.65,167.8 C209.2725,167.8 210.6,166.4725 210.6,164.85 L210.6,132.4 L243.05,132.4 C244.6725,132.4 246,131.0725 246,129.45 L246,123.55 C246,121.9275 244.6725,120.6 243.05,120.6 Z M125.64,144.2 C115.056875,144.2 109.968125,150.1 92.6,150.1 C75.231875,150.1 70.18,144.2 59.56,144.2 C32.19875,144.2 10,166.39875 10,193.76 L10,209.1 C10,218.871875 17.928125,226.8 27.7,226.8 L157.5,226.8 C167.271875,226.8 175.2,218.871875 175.2,209.1 L175.2,193.76 C175.2,166.39875 153.00125,144.2 125.64,144.2 Z M163.4,209.1 C163.4,212.345 160.745,215 157.5,215 L27.7,215 C24.455,215 21.8,212.345 21.8,209.1 L21.8,193.76 C21.8,172.925625 38.725625,156 59.56,156 C66.7875,156 73.978125,161.9 92.6,161.9 C111.185,161.9 118.4125,156 125.64,156 C146.474375,156 163.4,172.925625 163.4,193.76 L163.4,209.1 Z M92.6,132.4 C118.670625,132.4 139.8,111.270625 139.8,85.2 C139.8,59.129375 118.670625,38 92.6,38 C66.529375,38 45.4,59.129375 45.4,85.2 C45.4,111.270625 66.529375,132.4 92.6,132.4 Z M92.6,49.8 C112.106875,49.8 128,65.693125 128,85.2 C128,104.706875 112.106875,120.6 92.6,120.6 C73.093125,120.6 57.2,104.706875 57.2,85.2 C57.2,65.693125 73.093125,49.8 92.6,49.8 Z" fill="#000000" fill-rule="nonzero"></path>
    </g>
</svg>