<?xml version="1.0" encoding="utf-8"?><svg width="256" height="3064" viewBox="0 0 256 3064" xmlns="http://www.w3.org/2000/svg" xmlns:xlink="http://www.w3.org/1999/xlink"><svg viewBox="1612.857 -60 230.286 248" width="230.286" height="248" id="calendar"><path d="M1633.654 166.923h38.596v-38.596h-38.596v38.596zm47.173 0h42.885v-38.596h-42.885v38.596zm-47.173-47.173h38.596V76.865h-38.596v42.885zm47.173 0h42.885V76.865h-42.885v42.885zm-47.173-51.462h38.596V29.692h-38.596v38.596zm98.634 98.635h42.885v-38.596h-42.885v38.596zm-51.461-98.635h42.885V29.692h-42.885v38.596zm102.923 98.635h38.596v-38.596h-38.596v38.596zm-51.462-47.173h42.885V76.865h-42.885v42.885zM1685.115 3.962v-38.596c0-1.161-.424-2.167-1.273-3.015-.849-.849-1.854-1.273-3.015-1.273h-8.577c-1.161 0-2.167.424-3.015 1.273-.849.849-1.273 1.854-1.273 3.015V3.962c0 1.161.424 2.167 1.273 3.015s1.854 1.273 3.015 1.273h8.577c1.161 0 2.167-.424 3.015-1.273s1.273-1.854 1.273-3.015zm98.635 115.788h38.596V76.865h-38.596v42.885zm-51.462-51.462h42.885V29.692h-42.885v38.596zm51.462 0h38.596V29.692h-38.596v38.596zm4.288-64.326v-38.596c0-1.161-.424-2.167-1.273-3.015-.849-.849-1.854-1.273-3.015-1.273h-8.577c-1.161 0-2.167.424-3.015 1.273-.849.849-1.273 1.854-1.273 3.015V3.962c0 1.161.424 2.167 1.273 3.015s1.854 1.273 3.015 1.273h8.577c1.161 0 2.167-.424 3.015-1.273s1.273-1.854 1.273-3.015zm51.462-8.577v171.538c0 4.646-1.698 8.666-5.093 12.061s-7.415 5.093-12.061 5.093h-188.692c-4.646 0-8.666-1.698-12.061-5.093-3.395-3.395-5.093-7.415-5.093-12.061V-4.615c0-4.646 1.698-8.666 5.093-12.061 3.395-3.395 7.416-5.093 12.061-5.093h17.154v-12.865c0-5.897 2.099-10.945 6.299-15.144 4.199-4.199 9.247-6.299 15.144-6.299h8.577c5.897 0 10.945 2.1 15.144 6.299s6.299 9.247 6.299 15.144v12.865h51.462v-12.865c0-5.897 2.099-10.945 6.299-15.144 4.199-4.199 9.247-6.299 15.144-6.299h8.577c5.897 0 10.945 2.1 15.144 6.299s6.299 9.247 6.299 15.144v12.865h17.154c4.646 0 8.666 1.698 12.061 5.093s5.089 7.415 5.089 12.061z"/></svg><svg viewBox="-161.285 -63 256 256" width="256" height="256" id="check-circle" y="248"><path d="M47.339 39.686c0-2.917-.936-5.311-2.809-7.184L30.311 18.44c-1.978-1.978-4.323-2.966-7.035-2.966s-5.058.989-7.035 2.966l-63.754 63.596-35.316-35.316c-1.978-1.978-4.323-2.966-7.035-2.966-2.713 0-5.058.989-7.035 2.966l-14.219 14.062c-1.873 1.873-2.809 4.267-2.809 7.184 0 2.812.936 5.157 2.809 7.035l56.561 56.561c1.978 1.978 4.323 2.966 7.035 2.966 2.812 0 5.206-.989 7.184-2.966L44.504 46.72c1.873-1.873 2.809-4.218 2.809-7.035l.026.001zM86.715 65c0 21.77-5.364 41.849-16.092 60.236-10.728 18.387-25.285 32.944-43.672 43.672C8.564 179.636-11.515 185-33.285 185s-41.849-5.364-60.236-16.092c-18.387-10.728-32.944-25.285-43.672-43.672S-153.285 86.77-153.285 65s5.364-41.849 16.092-60.236 25.285-32.944 43.672-43.672S-55.055-55-33.285-55s41.849 5.364 60.236 16.092S59.896-13.623 70.623 4.764C81.351 23.151 86.715 43.23 86.715 65z"/></svg><svg viewBox="1632 -128 256 256" width="256" height="256" id="chevron-left" y="504"><path d="M1834.176-78.932L1755.243 0l78.932 78.932c1.883 1.883 2.824 4.113 2.824 6.689s-.941 4.806-2.824 6.689l-24.676 24.676c-1.883 1.883-4.113 2.824-6.689 2.824-2.577 0-4.806-.941-6.689-2.824L1685.824 6.689C1683.941 4.806 1683 2.577 1683 0s.941-4.806 2.824-6.689l110.297-110.297c1.883-1.883 4.113-2.824 6.689-2.824 2.577 0 4.806.941 6.689 2.824l24.676 24.676c1.883 1.883 2.824 4.113 2.824 6.689s-.94 4.806-2.823 6.689z"/></svg><svg viewBox="1568 -128 256 256" width="256" height="256" id="chevron-right" y="760"><path d="M1770.269 6.698l-110.436 110.436c-1.885 1.885-4.118 2.828-6.698 2.828s-4.812-.943-6.698-2.828l-24.707-24.707c-1.885-1.885-2.828-4.118-2.828-6.698s.943-4.812 2.828-6.698L1700.763 0l-79.032-79.032c-1.885-1.885-2.828-4.118-2.828-6.698s.943-4.812 2.828-6.698l24.707-24.707c1.885-1.885 4.118-2.828 6.698-2.828s4.812.943 6.698 2.828L1770.269-6.698c1.885 1.885 2.828 4.118 2.828 6.698s-.943 4.812-2.828 6.698z"/></svg><svg width="256" height="256" viewBox="0 0 256 256" id="circle" y="1016"><title>circle</title><circle cx="128" cy="128" r="118" fill="#000" fill-rule="evenodd"/></svg><svg viewBox="-159 -63 256 256" width="256" height="256" id="circle-thin" y="1272"><title>Shape</title><path d="M-31-34.998c-13.545 0-26.483 2.655-38.827 7.973-12.345 5.31-22.972 12.42-31.875 21.33-8.91 8.91-16.013 19.53-21.33 31.875-5.31 12.345-7.973 25.29-7.973 38.827 0 13.545 2.655 26.483 7.973 38.828 5.31 12.345 12.42 22.972 21.33 31.875 8.91 8.91 19.53 16.013 31.875 21.33 12.345 5.31 25.29 7.973 38.827 7.973 13.545 0 26.483-2.655 38.827-7.973 12.345-5.31 22.972-12.42 31.875-21.33 8.91-8.91 16.013-19.53 21.33-31.875 5.31-12.345 7.972-25.29 7.972-38.828 0-13.545-2.655-26.482-7.972-38.827-5.31-12.345-12.42-22.972-21.33-31.875-8.91-8.91-19.53-16.013-31.875-21.33-12.344-5.31-25.289-7.973-38.827-7.973zM89 65c0 21.772-5.363 41.85-16.095 60.232s-25.29 32.94-43.672 43.673S-9.228 185-31 185s-41.85-5.363-60.232-16.095-32.94-25.29-43.673-43.673S-151 86.772-151 65s5.363-41.85 16.095-60.233 25.29-32.94 43.673-43.672S-52.772-55-31-55s41.85 5.362 60.233 16.095 32.94 25.29 43.672 43.672S89 43.228 89 65z"/></svg><svg width="256" height="256" viewBox="0 0 256 256" id="facebook" y="1528"><title>Facebook</title><path d="M186.538 11.702v37.442h-22.266c-8.132 0-13.616 1.702-16.452 5.106-2.837 3.404-4.255 8.51-4.255 15.317v26.806h41.555l-5.531 41.98h-36.024V246h-43.4V138.353H64v-41.98h36.166V65.454c0-17.586 4.917-31.225 14.75-40.917C124.749 14.846 137.845 10 154.202 10c13.899 0 24.678.567 32.336 1.702z" fill-rule="nonzero" fill="#000"/></svg><svg viewBox="0 0 256 256" width="256" height="256" id="github" y="1784"><path d="M248 131.005c0 26.801-7.63 50.905-22.891 72.314s-34.974 36.224-59.141 44.445c-2.812.534-4.87.16-6.172-1.121-1.302-1.281-1.953-2.883-1.953-4.805v-33.794c0-10.357-2.708-17.938-8.125-22.743 5.938-.641 11.276-1.602 16.016-2.883 4.74-1.281 9.635-3.363 14.688-6.246 5.052-2.883 9.271-6.433 12.656-10.651s6.146-9.823 8.281-16.817c2.135-6.994 3.203-15.029 3.203-24.105 0-12.92-4.115-23.918-12.344-32.994 3.854-9.717 3.438-20.608-1.25-32.673-2.917-.961-7.135-.374-12.656 1.762S168 65.178 163.938 67.741L158 71.585c-9.688-2.776-19.688-4.164-30-4.164s-20.312 1.388-30 4.164c-1.667-1.175-3.88-2.616-6.641-4.324s-7.109-3.764-13.047-6.166-10.417-3.123-13.438-2.162c-4.583 12.066-4.948 22.957-1.094 32.673-8.229 9.076-12.344 20.074-12.344 32.994 0 9.076 1.068 17.084 3.203 24.024s4.87 12.546 8.203 16.817c3.333 4.271 7.526 7.848 12.578 10.731s9.948 4.965 14.688 6.246c4.74 1.281 10.078 2.242 16.016 2.883-4.167 3.844-6.719 9.343-7.656 16.497-2.188 1.068-4.531 1.869-7.031 2.402s-5.469.801-8.906.801-6.849-1.148-10.234-3.443c-3.385-2.296-6.276-5.632-8.672-10.01-1.979-3.417-4.505-6.193-7.578-8.328-3.073-2.136-5.651-3.417-7.734-3.844l-3.125-.48c-2.188 0-3.698.24-4.531.721-.833.48-1.094 1.094-.781 1.842.312.747.781 1.495 1.406 2.242s1.302 1.388 2.031 1.922l1.094.801c2.292 1.068 4.557 3.096 6.797 6.086 2.24 2.99 3.88 5.712 4.922 8.168l1.562 3.684c1.354 4.057 3.646 7.341 6.875 9.85s6.719 4.111 10.469 4.805 7.37 1.068 10.859 1.121 6.38-.133 8.672-.561l3.594-.641c0 4.057.026 8.809.078 14.255.052 5.446.078 8.328.078 8.649 0 1.922-.677 3.524-2.031 4.805-1.354 1.281-3.438 1.655-6.25 1.121-24.167-8.222-43.88-23.037-59.141-44.445S8 157.806 8 131.005c0-22.316 5.365-42.897 16.094-61.743S49.38 35.495 67.766 24.497 106.229 8 128 8s41.849 5.499 60.234 16.497 32.943 25.92 43.672 44.766S248 108.689 248 131.005z"/></svg><svg width="256" height="256" viewBox="0 0 256 256" id="instagram" y="2040"><title>Instagram</title><path d="M219.266 209.432V109.87h-20.743c2.049 6.453 3.073 13.162 3.073 20.127 0 12.907-3.277 24.814-9.833 35.723-6.556 10.909-15.467 19.539-26.734 25.89-11.268 6.35-23.56 9.525-36.875 9.525-20.18 0-37.439-6.94-51.779-20.819-14.34-13.879-21.51-30.652-21.51-50.319 0-6.965 1.024-13.674 3.072-20.127H36.273v99.562c0 2.663.897 4.891 2.69 6.684 1.792 1.792 4.02 2.689 6.683 2.689h164.247c2.561 0 4.763-.897 6.607-2.69 1.844-1.792 2.766-4.02 2.766-6.683zM175.63 127.54c0-12.701-4.635-23.533-13.905-32.496-9.27-8.963-20.46-13.444-33.571-13.444-13.009 0-24.148 4.481-33.418 13.444-9.27 8.963-13.905 19.795-13.905 32.496s4.635 23.533 13.905 32.496c9.27 8.963 20.409 13.444 33.418 13.444 13.11 0 24.301-4.481 33.571-13.444 9.27-8.963 13.905-19.795 13.905-32.496zm43.636-55.312V46.875c0-2.868-1.025-5.352-3.073-7.452-2.049-2.1-4.558-3.15-7.529-3.15H181.93c-2.97 0-5.48 1.05-7.529 3.15-2.049 2.1-3.073 4.584-3.073 7.452v25.352c0 2.97 1.024 5.48 3.073 7.528 2.049 2.049 4.558 3.073 7.529 3.073h26.734c2.97 0 5.48-1.024 7.529-3.073 2.048-2.048 3.073-4.558 3.073-7.528zM246 40.268v175.464c0 8.297-2.97 15.416-8.911 21.357-5.941 5.94-13.06 8.911-21.357 8.911H40.268c-8.297 0-15.416-2.97-21.357-8.911-5.94-5.941-8.911-13.06-8.911-21.357V40.268c0-8.297 2.97-15.416 8.911-21.357C24.852 12.971 31.971 10 40.268 10h175.464c8.297 0 15.416 2.97 21.357 8.911 5.94 5.941 8.911 13.06 8.911 21.357z" fill-rule="nonzero" fill="#000"/></svg><svg width="256" height="256" viewBox="0 0 256 256" id="twitter" y="2296"><title>Twitter</title><path d="M246 54.761c-6.689 9.784-14.775 18.12-24.259 25.008.1 1.398.15 3.494.15 6.29 0 12.977-1.897 25.93-5.69 38.859-3.794 12.928-9.56 25.332-17.296 37.211-7.737 11.88-16.946 22.387-27.628 31.522-10.682 9.135-23.56 16.422-38.635 21.863-15.074 5.44-31.197 8.161-48.368 8.161-27.054 0-51.812-7.238-74.274-21.713 3.494.4 7.387.599 11.68.599 22.462 0 42.478-6.888 60.048-20.665-10.482-.2-19.866-3.42-28.152-9.659-8.286-6.24-13.976-14.2-17.07-23.884 3.293.499 6.338.749 9.134.749 4.292 0 8.535-.55 12.728-1.648-11.181-2.296-20.44-7.861-27.778-16.696-7.337-8.835-11.006-19.093-11.006-30.773v-.6c6.788 3.794 14.076 5.84 21.863 6.14-6.59-4.392-11.83-10.132-15.724-17.22-3.893-7.088-5.84-14.775-5.84-23.061 0-8.785 2.197-16.922 6.59-24.409 12.079 14.875 26.779 26.78 44.1 35.714 17.32 8.935 35.864 13.902 55.63 14.9-.799-3.793-1.198-7.487-1.198-11.081 0-13.377 4.717-24.783 14.151-34.217C148.59 36.717 159.996 32 173.373 32c13.976 0 25.756 5.091 35.34 15.274 10.882-2.096 21.114-5.99 30.698-11.68-3.694 11.48-10.782 20.365-21.264 26.655 9.284-.999 18.569-3.494 27.853-7.488z" fill-rule="nonzero" fill="#000"/></svg><svg width="256" height="256" viewBox="0 0 256 256" id="usd" y="2552"><title>usd</title><path d="M189.745 166.06c0 13.433-4.363 25-13.09 34.702-8.726 9.702-20.062 15.694-34.007 17.977v23.047c0 1.229-.394 2.239-1.184 3.029-.789.79-1.798 1.185-3.025 1.185h-17.76c-1.14 0-2.127-.417-2.96-1.251-.834-.834-1.25-1.822-1.25-2.963v-23.047a82.844 82.844 0 0 1-16.773-4.083c-5.394-1.931-9.845-3.885-13.353-5.86-3.508-1.976-6.753-4.083-9.735-6.322-2.982-2.239-5.021-3.885-6.118-4.938-1.096-1.054-1.863-1.844-2.302-2.37-1.49-1.845-1.579-3.644-.263-5.4l13.55-17.78c.614-.877 1.623-1.404 3.026-1.58 1.315-.175 2.368.22 3.157 1.186l.263.263c9.91 8.692 20.567 14.18 31.968 16.462a45.898 45.898 0 0 0 9.735 1.054c7.104 0 13.353-1.888 18.747-5.663 5.394-3.776 8.09-9.131 8.09-16.067 0-2.459-.657-4.785-1.973-6.98-1.315-2.195-2.784-4.039-4.407-5.532-1.622-1.492-4.188-3.138-7.696-4.938-3.508-1.8-6.402-3.205-8.682-4.214-2.28-1.01-5.789-2.437-10.525-4.28-3.42-1.405-6.117-2.503-8.09-3.293-1.974-.79-4.67-1.953-8.091-3.49-3.42-1.536-6.161-2.897-8.222-4.083-2.061-1.185-4.539-2.743-7.433-4.675-2.894-1.931-5.24-3.797-7.038-5.597-1.798-1.8-3.706-3.95-5.723-6.453-2.017-2.502-3.574-5.048-4.67-7.638-1.097-2.59-2.017-5.51-2.763-8.758-.745-3.249-1.118-6.673-1.118-10.272 0-12.117 4.297-22.74 12.892-31.871 8.595-9.131 19.777-15.013 33.547-17.647V14.214c0-1.141.416-2.129 1.25-2.963.833-.834 1.82-1.251 2.96-1.251h17.76c1.227 0 2.236.395 3.025 1.185.79.79 1.184 1.8 1.184 3.03v23.178c5 .527 9.845 1.536 14.537 3.029 4.692 1.492 8.507 2.963 11.445 4.412a63.34 63.34 0 0 1 8.354 4.938c2.631 1.844 4.341 3.117 5.13 3.82.79.702 1.448 1.316 1.974 1.843 1.491 1.58 1.71 3.249.658 5.005L174.09 79.667c-.702 1.317-1.71 2.02-3.026 2.108-1.228.263-2.412-.044-3.552-.922-.263-.264-.899-.79-1.907-1.58-1.009-.79-2.72-1.954-5.131-3.49a67.87 67.87 0 0 0-7.696-4.215c-2.719-1.273-5.986-2.414-9.8-3.424-3.816-1.01-7.565-1.515-11.249-1.515-8.332 0-15.129 1.888-20.39 5.663-5.263 3.776-7.894 8.648-7.894 14.619 0 2.282.373 4.39 1.118 6.321.746 1.932 2.04 3.753 3.881 5.466 1.842 1.712 3.574 3.16 5.196 4.346 1.623 1.185 4.079 2.546 7.367 4.082 3.29 1.537 5.942 2.722 7.96 3.556 2.017.834 5.086 2.041 9.208 3.622 4.649 1.756 8.2 3.138 10.656 4.148 2.456 1.01 5.789 2.546 9.999 4.61 4.21 2.063 7.52 3.928 9.932 5.596 2.412 1.669 5.13 3.864 8.156 6.585 3.026 2.722 5.35 5.51 6.973 8.363 1.622 2.853 3.004 6.212 4.144 10.075 1.14 3.863 1.71 7.99 1.71 12.38z" fill-rule="nonzero" fill="#000"/></svg><svg width="256" height="256" viewBox="0 0 256 256" id="youtube" y="2808"><title>YouTube</title><path d="M178.571 128.286c0-3.249-1.317-5.62-3.95-7.112l-67.429-42.143c-2.722-1.756-5.575-1.844-8.56-.263-2.898 1.58-4.346 4.039-4.346 7.375v84.286c0 3.336 1.448 5.794 4.346 7.375 1.404.702 2.765 1.053 4.082 1.053 1.756 0 3.249-.439 4.478-1.317l67.429-42.143c2.633-1.492 3.95-3.863 3.95-7.111zm67.429 0c0 8.428-.044 15.013-.132 19.754-.087 4.741-.46 10.733-1.12 17.977-.658 7.243-1.645 13.718-2.962 19.425-1.405 6.41-4.434 11.809-9.087 16.199-4.654 4.39-10.097 6.936-16.33 7.638-19.492 2.195-48.948 3.292-88.369 3.292s-68.877-1.097-88.368-3.292c-6.234-.702-11.7-3.248-16.397-7.638-4.697-4.39-7.748-9.79-9.152-16.199-1.23-5.707-2.173-12.182-2.832-19.425-.658-7.244-1.032-13.236-1.12-17.977-.087-4.74-.131-11.326-.131-19.754 0-8.429.044-15.014.132-19.755.087-4.74.46-10.733 1.12-17.976.658-7.244 1.645-13.719 2.962-19.426 1.405-6.409 4.434-11.808 9.087-16.198 4.654-4.39 10.097-6.936 16.33-7.639C59.124 45.097 88.58 44 128 44s68.877 1.097 88.368 3.292c6.234.703 11.7 3.249 16.397 7.639 4.697 4.39 7.748 9.79 9.152 16.198 1.23 5.707 2.173 12.182 2.832 19.426.658 7.243 1.032 13.235 1.12 17.976.087 4.741.131 11.326.131 19.755z" fill-rule="nonzero" fill="#000"/></svg></svg>