<?xml version="1.0" encoding="utf-8"?><!DOCTYPE svg PUBLIC "-//W3C//DTD SVG 1.1//EN" "http://www.w3.org/Graphics/SVG/1.1/DTD/svg11.dtd"><svg width="1824" height="1792" viewBox="0 0 1824 1792" xmlns="http://www.w3.org/2000/svg" xmlns:xlink="http://www.w3.org/1999/xlink"><svg width="32" height="32" viewBox="0 0 32 32" id="calendar" x="1792"><path stroke="#449FDB" d="M0 0"/><path d="M27.2 4.8h-1.44V8h-5.12V4.8h-9.28V8H6.24V4.8H4.8A3.21 3.21 0 0 0 1.6 8v19.2c0 1.76 1.44 3.2 3.2 3.2h22.4c1.76 0 3.2-1.44 3.2-3.2V8c0-1.76-1.44-3.2-3.2-3.2zm0 22.4H4.8V14.4h22.4v12.8zM9.92 1.6H7.68v5.44h2.24V1.6zm14.4 0h-2.24v5.44h2.24V1.6z"/></svg><svg width="32" height="32" viewBox="0 0 32 32" id="check-circle" x="1792" y="32"><path d="M22.929 13.107q0-.5-.321-.821l-1.625-1.607q-.339-.339-.804-.339t-.804.339l-7.286 7.268-4.036-4.036q-.339-.339-.804-.339t-.804.339L4.82 15.518q-.321.321-.321.821 0 .482.321.804l6.464 6.464q.339.339.804.339.482 0 .821-.339l9.696-9.696q.321-.321.321-.804zm4.5 2.893q0 3.732-1.839 6.884t-4.991 4.991-6.884 1.839-6.884-1.839-4.991-4.991T.001 16 1.84 9.116t4.991-4.991 6.884-1.839 6.884 1.839 4.991 4.991T27.429 16z"/></svg><svg width="32" height="32" viewBox="0 0 32 32" id="chevron-left" x="1792" y="64"><path d="M18.299 7.226c-.669.653-7.203 7.514-7.203 7.514a1.756 1.756 0 0 0 0 2.522s6.534 6.861 7.203 7.512c.669.653 1.872.698 2.586 0 .712-.696.768-1.667-.002-2.52l-5.995-6.253 5.995-6.253c.77-.854.714-1.826.002-2.522-.715-.696-1.918-.653-2.586 0z"/></svg><svg width="32" height="32" viewBox="0 0 32 32" id="chevron-right" x="1792" y="96"><path d="M13.701 7.226c.669.653 7.203 7.514 7.203 7.514a1.754 1.754 0 0 1 0 2.522s-6.534 6.861-7.203 7.512c-.669.653-1.87.698-2.586 0-.714-.696-.77-1.667 0-2.52l5.997-6.253-5.995-6.253c-.77-.854-.714-1.826 0-2.522.714-.696 1.917-.653 2.584 0z"/></svg><svg width="32" height="32" viewBox="0 0 32 32" id="circle-thin" x="1792" y="128"><title>Shape</title><path d="M16 2.667c-1.806 0-3.531.354-5.177 1.063-1.646.708-3.063 1.656-4.25 2.844-1.188 1.188-2.135 2.604-2.844 4.25a12.969 12.969 0 0 0-1.063 5.177c0 1.806.354 3.531 1.063 5.177.708 1.646 1.656 3.063 2.844 4.25 1.188 1.188 2.604 2.135 4.25 2.844A12.969 12.969 0 0 0 16 29.335c1.806 0 3.531-.354 5.177-1.063 1.646-.708 3.063-1.656 4.25-2.844 1.188-1.188 2.135-2.604 2.844-4.25a12.969 12.969 0 0 0 1.063-5.177c0-1.806-.354-3.531-1.063-5.177-.708-1.646-1.656-3.063-2.844-4.25-1.188-1.188-2.604-2.135-4.25-2.844A12.969 12.969 0 0 0 16 2.667zM32 16c0 2.903-.715 5.58-2.146 8.031a15.941 15.941 0 0 1-5.823 5.823C21.58 31.285 18.903 32 16 32c-2.903 0-5.58-.715-8.031-2.146a15.941 15.941 0 0 1-5.823-5.823C.715 21.58 0 18.903 0 16c0-2.903.715-5.58 2.146-8.031a15.941 15.941 0 0 1 5.823-5.823C10.42.715 13.097 0 16 0c2.903 0 5.58.715 8.031 2.146a15.941 15.941 0 0 1 5.823 5.823C31.285 10.42 32 13.097 32 16z"/></svg><svg width="1792" height="1792" viewBox="0 0 1792 1792" id="github"><path d="M1664 896q0 251-146.5 451.5T1139 1625q-27 5-39.5-7t-12.5-30v-211q0-97-52-142 57-6 102.5-18t94-39 81-66.5 53-105T1386 856q0-121-79-206 37-91-8-204-28-9-81 11t-92 44l-38 24q-93-26-192-26t-192 26q-16-11-42.5-27T578 459.5 492 446q-44 113-7 204-79 85-79 206 0 85 20.5 150t52.5 105 80.5 67 94 39 102.5 18q-40 36-49 103-21 10-45 15t-57 5-65.5-21.5T484 1274q-19-32-48.5-52t-49.5-24l-20-3q-21 0-29 4.5t-5 11.5 9 14 13 12l7 5q22 10 43.5 38t31.5 51l10 23q13 38 44 61.5t67 30 69.5 7 55.5-3.5l23-4q0 38 .5 89t.5 54q0 18-13 30t-40 7q-232-77-378.5-277.5T128 896q0-209 103-385.5T510.5 231 896 128t385.5 103T1561 510.5 1664 896z"/></svg></svg>