<?xml version="1.0" encoding="utf-8"?><!DOCTYPE svg PUBLIC "-//W3C//DTD SVG 1.1//EN" "http://www.w3.org/Graphics/SVG/1.1/DTD/svg11.dtd"><svg width="1824" height="1792" viewBox="0 0 1824 1792" xmlns="http://www.w3.org/2000/svg" xmlns:xlink="http://www.w3.org/1999/xlink"><svg width="32" height="32" viewBox="0 0 32 32" id="arrow-left9" x="1792"><path d="M18.299 7.226c-.669.653-7.203 7.514-7.203 7.514a1.756 1.756 0 0 0 0 2.522s6.534 6.861 7.203 7.512c.669.653 1.872.698 2.586 0 .712-.696.768-1.667-.002-2.52l-5.995-6.253 5.995-6.253c.77-.854.714-1.826.002-2.522-.715-.696-1.918-.653-2.586 0z"/></svg><svg width="32" height="32" viewBox="0 0 32 32" id="arrow-right9" x="1792" y="32"><path d="M13.701 7.226c.669.653 7.203 7.514 7.203 7.514a1.754 1.754 0 0 1 0 2.522s-6.534 6.861-7.203 7.512c-.669.653-1.87.698-2.586 0-.714-.696-.77-1.667 0-2.52l5.997-6.253-5.995-6.253c-.77-.854-.714-1.826 0-2.522.714-.696 1.917-.653 2.584 0z"/></svg><svg width="32" height="32" viewBox="0 0 32 32" id="calendar" x="1792" y="64"><path stroke="#449FDB" d="M0 0"/><path d="M27.2 4.8h-1.44V8h-5.12V4.8h-9.28V8H6.24V4.8H4.8A3.21 3.21 0 0 0 1.6 8v19.2c0 1.76 1.44 3.2 3.2 3.2h22.4c1.76 0 3.2-1.44 3.2-3.2V8c0-1.76-1.44-3.2-3.2-3.2zm0 22.4H4.8V14.4h22.4v12.8zM9.92 1.6H7.68v5.44h2.24V1.6zm14.4 0h-2.24v5.44h2.24V1.6z"/></svg><svg width="32" height="32" viewBox="0 0 32 32" id="check-circle" x="1792" y="96"><path d="M22.929 13.107q0-.5-.321-.821l-1.625-1.607q-.339-.339-.804-.339t-.804.339l-7.286 7.268-4.036-4.036q-.339-.339-.804-.339t-.804.339L4.82 15.518q-.321.321-.321.821 0 .482.321.804l6.464 6.464q.339.339.804.339.482 0 .821-.339l9.696-9.696q.321-.321.321-.804zm4.5 2.893q0 3.732-1.839 6.884t-4.991 4.991-6.884 1.839-6.884-1.839-4.991-4.991T.001 16 1.84 9.116t4.991-4.991 6.884-1.839 6.884 1.839 4.991 4.991T27.429 16z"/></svg><svg width="1792" height="1792" viewBox="0 0 1792 1792" id="circle-thin"><path d="M896 256q-130 0-248.5 51t-204 136.5-136.5 204T256 896t51 248.5 136.5 204 204 136.5 248.5 51 248.5-51 204-136.5 136.5-204 51-248.5-51-248.5-136.5-204-204-136.5T896 256zm768 640q0 209-103 385.5T1281.5 1561 896 1664t-385.5-103T231 1281.5 128 896t103-385.5T510.5 231 896 128t385.5 103T1561 510.5 1664 896z"/></svg></svg>