<?xml version="1.0" encoding="utf-8"?><!DOCTYPE svg PUBLIC "-//W3C//DTD SVG 1.1//EN" "http://www.w3.org/Graphics/SVG/1.1/DTD/svg11.dtd"><svg xmlns="http://www.w3.org/2000/svg" xmlns:xlink="http://www.w3.org/1999/xlink"><symbol viewBox="0 0 32 32" id="arrow-left9"><path d="M18.299 7.226c-.669.653-7.203 7.514-7.203 7.514a1.756 1.756 0 0 0 0 2.522s6.534 6.861 7.203 7.512c.669.653 1.872.698 2.586 0 .712-.696.768-1.667-.002-2.52l-5.995-6.253 5.995-6.253c.77-.854.714-1.826.002-2.522-.715-.696-1.918-.653-2.586 0z"/></symbol><symbol viewBox="0 0 32 32" id="arrow-right9"><path d="M13.701 7.226c.669.653 7.203 7.514 7.203 7.514a1.754 1.754 0 0 1 0 2.522s-6.534 6.861-7.203 7.512c-.669.653-1.87.698-2.586 0-.714-.696-.77-1.667 0-2.52l5.997-6.253-5.995-6.253c-.77-.854-.714-1.826 0-2.522.714-.696 1.917-.653 2.584 0z"/></symbol><symbol viewBox="0 0 32 32" id="calendar"><path stroke="#449FDB" d="M0 0"/><path d="M27.2 4.8h-1.44V8h-5.12V4.8h-9.28V8H6.24V4.8H4.8A3.21 3.21 0 0 0 1.6 8v19.2c0 1.76 1.44 3.2 3.2 3.2h22.4c1.76 0 3.2-1.44 3.2-3.2V8c0-1.76-1.44-3.2-3.2-3.2zm0 22.4H4.8V14.4h22.4v12.8zM9.92 1.6H7.68v5.44h2.24V1.6zm14.4 0h-2.24v5.44h2.24V1.6z"/></symbol><symbol viewBox="0 0 32 32" id="check-circle"><path d="M22.929 13.107q0-.5-.321-.821l-1.625-1.607q-.339-.339-.804-.339t-.804.339l-7.286 7.268-4.036-4.036q-.339-.339-.804-.339t-.804.339L4.82 15.518q-.321.321-.321.821 0 .482.321.804l6.464 6.464q.339.339.804.339.482 0 .821-.339l9.696-9.696q.321-.321.321-.804zm4.5 2.893q0 3.732-1.839 6.884t-4.991 4.991-6.884 1.839-6.884-1.839-4.991-4.991T.001 16 1.84 9.116t4.991-4.991 6.884-1.839 6.884 1.839 4.991 4.991T27.429 16z"/></symbol><symbol viewBox="0 0 32 32" id="circle-thin"><title>Shape</title><path d="M16 2.667c-1.806 0-3.531.354-5.177 1.063-1.646.708-3.063 1.656-4.25 2.844-1.188 1.188-2.135 2.604-2.844 4.25a12.969 12.969 0 0 0-1.063 5.177c0 1.806.354 3.531 1.063 5.177.708 1.646 1.656 3.063 2.844 4.25 1.188 1.188 2.604 2.135 4.25 2.844A12.969 12.969 0 0 0 16 29.335c1.806 0 3.531-.354 5.177-1.063 1.646-.708 3.063-1.656 4.25-2.844 1.188-1.188 2.135-2.604 2.844-4.25a12.969 12.969 0 0 0 1.063-5.177c0-1.806-.354-3.531-1.063-5.177-.708-1.646-1.656-3.063-2.844-4.25-1.188-1.188-2.604-2.135-4.25-2.844A12.969 12.969 0 0 0 16 2.667zM32 16c0 2.903-.715 5.58-2.146 8.031a15.941 15.941 0 0 1-5.823 5.823C21.58 31.285 18.903 32 16 32c-2.903 0-5.58-.715-8.031-2.146a15.941 15.941 0 0 1-5.823-5.823C.715 21.58 0 18.903 0 16c0-2.903.715-5.58 2.146-8.031a15.941 15.941 0 0 1 5.823-5.823C10.42.715 13.097 0 16 0c2.903 0 5.58.715 8.031 2.146a15.941 15.941 0 0 1 5.823 5.823C31.285 10.42 32 13.097 32 16z"/></symbol></svg>