<?xml version="1.0" encoding="utf-8"?>
<!-- Generator: Adobe Illustrator 18.1.1, SVG Export Plug-In . SVG Version: 6.00 Build 0)  -->
<svg version="1.1" id="Layer_1" xmlns="http://www.w3.org/2000/svg" xmlns:xlink="http://www.w3.org/1999/xlink" x="0px" y="0px"
	 viewBox="1612.857 -60 230.286 248" enable-background="new 1612.857 -60 230.286 248" xml:space="preserve">
<path d="M1633.654,166.923h38.596v-38.596h-38.596V166.923z M1680.827,166.923h42.885v-38.596h-42.885V166.923z M1633.654,119.75
	h38.596V76.865h-38.596V119.75z M1680.827,119.75h42.885V76.865h-42.885V119.75z M1633.654,68.288h38.596V29.692h-38.596V68.288z
	 M1732.288,166.923h42.885v-38.596h-42.885V166.923z M1680.827,68.288h42.885V29.692h-42.885V68.288z M1783.75,166.923h38.596
	v-38.596h-38.596V166.923z M1732.288,119.75h42.885V76.865h-42.885V119.75z M1685.115,3.962v-38.596
	c0-1.161-0.424-2.167-1.273-3.015c-0.849-0.849-1.854-1.273-3.015-1.273h-8.577c-1.161,0-2.167,0.424-3.015,1.273
	c-0.849,0.849-1.273,1.854-1.273,3.015V3.962c0,1.161,0.424,2.167,1.273,3.015s1.854,1.273,3.015,1.273h8.577
	c1.161,0,2.167-0.424,3.015-1.273S1685.115,5.123,1685.115,3.962z M1783.75,119.75h38.596V76.865h-38.596V119.75z M1732.288,68.288
	h42.885V29.692h-42.885V68.288z M1783.75,68.288h38.596V29.692h-38.596V68.288z M1788.038,3.962v-38.596
	c0-1.161-0.424-2.167-1.273-3.015c-0.849-0.849-1.854-1.273-3.015-1.273h-8.577c-1.161,0-2.167,0.424-3.015,1.273
	c-0.849,0.849-1.273,1.854-1.273,3.015V3.962c0,1.161,0.424,2.167,1.273,3.015s1.854,1.273,3.015,1.273h8.577
	c1.161,0,2.167-0.424,3.015-1.273S1788.038,5.123,1788.038,3.962z M1839.5-4.615v171.538c0,4.646-1.698,8.666-5.093,12.061
	s-7.415,5.093-12.061,5.093h-188.692c-4.646,0-8.666-1.698-12.061-5.093c-3.395-3.395-5.093-7.415-5.093-12.061V-4.615
	c0-4.646,1.698-8.666,5.093-12.061c3.395-3.395,7.416-5.093,12.061-5.093h17.154v-12.865c0-5.897,2.099-10.945,6.299-15.144
	c4.199-4.199,9.247-6.299,15.144-6.299h8.577c5.897,0,10.945,2.1,15.144,6.299s6.299,9.247,6.299,15.144v12.865h51.462v-12.865
	c0-5.897,2.099-10.945,6.299-15.144c4.199-4.199,9.247-6.299,15.144-6.299h8.577c5.897,0,10.945,2.1,15.144,6.299
	s6.299,9.247,6.299,15.144v12.865h17.154c4.646,0,8.666,1.698,12.061,5.093S1839.5-9.261,1839.5-4.615z"/>
</svg>
