<?xml version="1.0" encoding="utf-8"?>
<!-- Generator: Adobe Illustrator 18.1.1, SVG Export Plug-In . SVG Version: 6.00 Build 0)  -->
<svg version="1.1" id="Layer_1" xmlns="http://www.w3.org/2000/svg" xmlns:xlink="http://www.w3.org/1999/xlink" x="0px" y="0px"
	 viewBox="-161.285 -63 256 256" enable-background="new -161.285 -63 256 256" xml:space="preserve">
<path d="M47.339,39.686c0-2.917-0.936-5.311-2.809-7.184L30.311,18.44c-1.978-1.978-4.323-2.966-7.035-2.966
	s-5.058,0.989-7.035,2.966l-63.754,63.596l-35.316-35.316c-1.978-1.978-4.323-2.966-7.035-2.966c-2.713,0-5.058,0.989-7.035,2.966
	l-14.219,14.062c-1.873,1.873-2.809,4.267-2.809,7.184c0,2.812,0.936,5.157,2.809,7.035l56.561,56.561
	c1.978,1.978,4.323,2.966,7.035,2.966c2.812,0,5.206-0.989,7.184-2.966l84.842-84.842c1.873-1.873,2.809-4.218,2.809-7.035
	L47.339,39.686z M86.715,65c0,21.77-5.364,41.849-16.092,60.236c-10.728,18.387-25.285,32.944-43.672,43.672
	C8.564,179.636-11.515,185-33.285,185s-41.849-5.364-60.236-16.092c-18.387-10.728-32.944-25.285-43.672-43.672
	S-153.285,86.77-153.285,65s5.364-41.849,16.092-60.236s25.285-32.944,43.672-43.672S-55.055-55-33.285-55
	s41.849,5.364,60.236,16.092S59.896-13.623,70.623,4.764C81.351,23.151,86.715,43.23,86.715,65z"/>
</svg>
