<?xml version="1.0" encoding="utf-8"?>
<!-- Generator: Adobe Illustrator 18.1.1, SVG Export Plug-In . SVG Version: 6.00 Build 0)  -->
<svg version="1.1" id="Layer_1" xmlns="http://www.w3.org/2000/svg" xmlns:xlink="http://www.w3.org/1999/xlink" x="0px" y="0px"
	 viewBox="1568 -128 256 256" enable-background="new 1568 -128 256 256" xml:space="preserve">
<path d="M1770.269,6.698l-110.436,110.436c-1.885,1.885-4.118,2.828-6.698,2.828s-4.812-0.943-6.698-2.828l-24.707-24.707
	c-1.885-1.885-2.828-4.118-2.828-6.698s0.943-4.812,2.828-6.698L1700.763,0l-79.032-79.032c-1.885-1.885-2.828-4.118-2.828-6.698
	s0.943-4.812,2.828-6.698l24.707-24.707c1.885-1.885,4.118-2.828,6.698-2.828s4.812,0.943,6.698,2.828L1770.269-6.698
	c1.885,1.885,2.828,4.118,2.828,6.698S1772.154,4.812,1770.269,6.698z"/>
</svg>
