<?xml version="1.0" encoding="utf-8"?>
<!-- Generator: Adobe Illustrator 18.1.1, SVG Export Plug-In . SVG Version: 6.00 Build 0)  -->
<svg version="1.1" id="Layer_1" xmlns="http://www.w3.org/2000/svg" xmlns:xlink="http://www.w3.org/1999/xlink" x="0px" y="0px"
	 viewBox="1632 -128 256 256" enable-background="new 1632 -128 256 256" xml:space="preserve">
<path d="M1834.176-78.932L1755.243,0l78.932,78.932c1.883,1.883,2.824,4.113,2.824,6.689s-0.941,4.806-2.824,6.689l-24.676,24.676
	c-1.883,1.883-4.113,2.824-6.689,2.824c-2.577,0-4.806-0.941-6.689-2.824L1685.824,6.689C1683.941,4.806,1683,2.577,1683,0
	s0.941-4.806,2.824-6.689l110.297-110.297c1.883-1.883,4.113-2.824,6.689-2.824c2.577,0,4.806,0.941,6.689,2.824l24.676,24.676
	c1.883,1.883,2.824,4.113,2.824,6.689S1836.059-80.815,1834.176-78.932z"/>
</svg>
