<svg width="32" height="32" viewBox="0 0 32 32" xmlns="http://www.w3.org/2000/svg"><title>Shape</title><desc>Created with Sketch.</desc><path d="M16 2.667c-1.806 0-3.531.354-5.177 1.063-1.646.708-3.063 1.656-4.25 2.844-1.188 1.188-2.135 2.604-2.844 4.25-.708 1.646-1.063 3.372-1.063 5.177 0 1.806.354 3.531 1.063 5.177.708 1.646 1.656 3.063 2.844 4.25 1.188 1.188 2.604 2.135 4.25 2.844 1.646.708 3.372 1.063 5.177 1.063 1.806 0 3.531-.354 5.177-1.063 1.646-.708 3.063-1.656 4.25-2.844 1.188-1.188 2.135-2.604 2.844-4.25.708-1.646 1.063-3.372 1.063-5.177 0-1.806-.354-3.531-1.063-5.177-.708-1.646-1.656-3.063-2.844-4.25-1.188-1.188-2.604-2.135-4.25-2.844-1.646-.708-3.372-1.063-5.177-1.063zm16 13.333c0 2.903-.715 5.58-2.146 8.031-1.431 2.451-3.372 4.392-5.823 5.823-2.451 1.431-5.128 2.146-8.031 2.146-2.903 0-5.58-.715-8.031-2.146-2.451-1.431-4.392-3.372-5.823-5.823-1.431-2.451-2.146-5.128-2.146-8.031 0-2.903.715-5.58 2.146-8.031 1.431-2.451 3.372-4.392 5.823-5.823 2.451-1.431 5.128-2.146 8.031-2.146 2.903 0 5.58.715 8.031 2.146 2.451 1.431 4.392 3.372 5.823 5.823 1.431 2.451 2.146 5.128 2.146 8.031z" fill="#000" fill-rule="nonzero"/></svg>