<?xml version="1.0" encoding="utf-8"?>
<!-- Generator: Adobe Illustrator 18.1.1, SVG Export Plug-In . SVG Version: 6.00 Build 0)  -->
<svg version="1.1" id="Layer_1" xmlns="http://www.w3.org/2000/svg" xmlns:xlink="http://www.w3.org/1999/xlink" x="0px" y="0px"
	 viewBox="-159 -63 256 256" enable-background="new -159 -63 256 256" xml:space="preserve">
<title>Shape</title>
<desc>Created with Sketch.</desc>
<path d="M-31-34.998c-13.545,0-26.483,2.655-38.827,7.973c-12.345,5.31-22.972,12.42-31.875,21.33
	c-8.91,8.91-16.013,19.53-21.33,31.875c-5.31,12.345-7.973,25.29-7.973,38.827c0,13.545,2.655,26.483,7.973,38.828
	c5.31,12.345,12.42,22.972,21.33,31.875c8.91,8.91,19.53,16.013,31.875,21.33c12.345,5.31,25.29,7.973,38.827,7.973
	c13.545,0,26.483-2.655,38.827-7.973c12.345-5.31,22.972-12.42,31.875-21.33c8.91-8.91,16.013-19.53,21.33-31.875
	c5.31-12.345,7.972-25.29,7.972-38.828c0-13.545-2.655-26.482-7.972-38.827c-5.31-12.345-12.42-22.972-21.33-31.875
	c-8.91-8.91-19.53-16.013-31.875-21.33C-4.517-32.335-17.462-34.998-31-34.998z M89,65c0,21.772-5.363,41.85-16.095,60.232
	s-25.29,32.94-43.672,43.673S-9.228,185-31,185s-41.85-5.363-60.232-16.095s-32.94-25.29-43.673-43.673S-151,86.772-151,65
	s5.363-41.85,16.095-60.233s25.29-32.94,43.673-43.672S-52.772-55-31-55s41.85,5.362,60.233,16.095s32.94,25.29,43.672,43.672
	S89,43.228,89,65z"/>
</svg>
