<?xml version="1.0" encoding="utf-8"?>
<!-- Generator: Adobe Illustrator 18.1.1, SVG Export Plug-In . SVG Version: 6.00 Build 0)  -->
<svg version="1.1" id="Layer_1" xmlns="http://www.w3.org/2000/svg" xmlns:xlink="http://www.w3.org/1999/xlink" x="0px" y="0px"
	 viewBox="0 0 256 256" style="enable-background:new 0 0 256 256;" xml:space="preserve">
<path d="M248,131.005c0,26.801-7.63,50.905-22.891,72.314s-34.974,36.224-59.141,44.445c-2.812,0.534-4.87,0.16-6.172-1.121
	c-1.302-1.281-1.953-2.883-1.953-4.805v-33.794c0-10.357-2.708-17.938-8.125-22.743c5.938-0.641,11.276-1.602,16.016-2.883
	c4.74-1.281,9.635-3.363,14.688-6.246c5.052-2.883,9.271-6.433,12.656-10.651c3.385-4.218,6.146-9.823,8.281-16.817
	c2.135-6.994,3.203-15.029,3.203-24.105c0-12.92-4.115-23.918-12.344-32.994c3.854-9.717,3.438-20.608-1.25-32.673
	c-2.917-0.961-7.135-0.374-12.656,1.762S168,65.178,163.938,67.741L158,71.585c-9.688-2.776-19.688-4.164-30-4.164
	s-20.312,1.388-30,4.164c-1.667-1.175-3.88-2.616-6.641-4.324s-7.109-3.764-13.047-6.166s-10.417-3.123-13.438-2.162
	c-4.583,12.066-4.948,22.957-1.094,32.673c-8.229,9.076-12.344,20.074-12.344,32.994c0,9.076,1.068,17.084,3.203,24.024
	s4.87,12.546,8.203,16.817c3.333,4.271,7.526,7.848,12.578,10.731c5.052,2.883,9.948,4.965,14.688,6.246
	c4.74,1.281,10.078,2.242,16.016,2.883c-4.167,3.844-6.719,9.343-7.656,16.497c-2.188,1.068-4.531,1.869-7.031,2.402
	s-5.469,0.801-8.906,0.801s-6.849-1.148-10.234-3.443c-3.385-2.296-6.276-5.632-8.672-10.01c-1.979-3.417-4.505-6.193-7.578-8.328
	c-3.073-2.136-5.651-3.417-7.734-3.844l-3.125-0.48c-2.188,0-3.698,0.24-4.531,0.721c-0.833,0.48-1.094,1.094-0.781,1.842
	c0.312,0.747,0.781,1.495,1.406,2.242s1.302,1.388,2.031,1.922l1.094,0.801c2.292,1.068,4.557,3.096,6.797,6.086
	c2.24,2.99,3.88,5.712,4.922,8.168l1.562,3.684c1.354,4.057,3.646,7.341,6.875,9.85s6.719,4.111,10.469,4.805
	s7.37,1.068,10.859,1.121s6.38-0.133,8.672-0.561l3.594-0.641c0,4.057,0.026,8.809,0.078,14.255
	c0.052,5.446,0.078,8.328,0.078,8.649c0,1.922-0.677,3.524-2.031,4.805c-1.354,1.281-3.438,1.655-6.25,1.121
	c-24.167-8.222-43.88-23.037-59.141-44.445S8,157.806,8,131.005c0-22.316,5.365-42.897,16.094-61.743S49.38,35.495,67.766,24.497
	S106.229,8,128,8s41.849,5.499,60.234,16.497s32.943,25.92,43.672,44.766S248,108.689,248,131.005z"/>
</svg>
