<?xml version="1.0" encoding="UTF-8"?>
<svg width="256" height="256" viewBox="0 0 256 256" version="1.1" xmlns="http://www.w3.org/2000/svg" xmlns:xlink="http://www.w3.org/1999/xlink">
<svg id="calendar" width="256" height="256" viewbox="0 0 256 256">
  <g>
    <path d="M36.2162975,228.37119 L73.8553719,228.37119 L73.8553719,190.732116 L36.2162975,190.732116 L36.2162975,228.37119 Z M82.219719,228.37119 L124.041455,228.37119 L124.041455,190.732116 L82.219719,190.732116 L82.219719,228.37119 Z M36.2162975,182.367769 L73.8553719,182.367769 L73.8553719,140.546033 L36.2162975,140.546033 L36.2162975,182.367769 Z M82.219719,182.367769 L124.041455,182.367769 L124.041455,140.546033 L82.219719,140.546033 L82.219719,182.367769 Z M36.2162975,132.181686 L73.8553719,132.181686 L73.8553719,94.5426116 L36.2162975,94.5426116 L36.2162975,132.181686 Z M132.404826,228.37119 L174.226562,228.37119 L174.226562,190.732116 L132.404826,190.732116 L132.404826,228.37119 Z M82.219719,132.181686 L124.041455,132.181686 L124.041455,94.5426116 L82.219719,94.5426116 L82.219719,132.181686 Z M182.590909,228.37119 L220.229983,228.37119 L220.229983,190.732116 L182.590909,190.732116 L182.590909,228.37119 Z M132.404826,182.367769 L174.226562,182.367769 L174.226562,140.546033 L132.404826,140.546033 L132.404826,182.367769 Z M86.401405,69.4505455 L86.401405,31.8114711 C86.401405,30.6792562 85.9879174,29.6981983 85.1599669,28.8712231 C84.3320165,28.0432727 83.3519339,27.6297851 82.219719,27.6297851 L73.8553719,27.6297851 C72.723157,27.6297851 71.7420992,28.0432727 70.915124,28.8712231 C70.0871736,29.6991736 69.673686,30.6792562 69.673686,31.8114711 L69.673686,69.4505455 C69.673686,70.5827603 70.0871736,71.5638182 70.915124,72.3907934 C71.7430744,73.2177686 72.723157,73.6322314 73.8553719,73.6322314 L82.219719,73.6322314 C83.3519339,73.6322314 84.3329917,73.2187438 85.1599669,72.3907934 C85.9869421,71.562843 86.401405,70.5827603 86.401405,69.4505455 Z M182.590909,182.367769 L220.229983,182.367769 L220.229983,140.546033 L182.590909,140.546033 L182.590909,182.367769 Z M132.404826,132.181686 L174.226562,132.181686 L174.226562,94.5426116 L132.404826,94.5426116 L132.404826,132.181686 Z M182.590909,132.181686 L220.229983,132.181686 L220.229983,94.5426116 L182.590909,94.5426116 L182.590909,132.181686 Z M186.772595,69.4505455 L186.772595,31.8114711 C186.772595,30.6792562 186.359107,29.6981983 185.531157,28.8712231 C184.703207,28.0432727 183.723124,27.6297851 182.590909,27.6297851 L174.226562,27.6297851 C173.094347,27.6297851 172.113289,28.0432727 171.286314,28.8712231 C170.458364,29.6991736 170.044876,30.6792562 170.044876,31.8114711 L170.044876,69.4505455 C170.044876,70.5827603 170.458364,71.5638182 171.286314,72.3907934 C172.114264,73.2177686 173.094347,73.6322314 174.226562,73.6322314 L182.590909,73.6322314 C183.723124,73.6322314 184.704182,73.2187438 185.531157,72.3907934 C186.358132,71.562843 186.772595,70.5827603 186.772595,69.4505455 Z M236.958678,61.0861983 L236.958678,228.37119 C236.958678,232.902 235.302777,236.822331 231.99195,240.133157 C228.681124,243.443983 224.760793,245.099884 220.229983,245.099884 L36.2162975,245.099884 C31.6854876,245.099884 27.765157,243.443983 24.4543306,240.133157 C21.1435041,236.822331 19.4876033,232.902 19.4876033,228.37119 L19.4876033,61.0861983 C19.4876033,56.5553884 21.1435041,52.6350579 24.4543306,49.3242314 C27.765157,46.013405 31.6864628,44.3575041 36.2162975,44.3575041 L52.9449917,44.3575041 L52.9449917,31.8114711 C52.9449917,26.0606777 54.9919504,21.1378347 59.0878182,17.0429421 C63.1827107,12.9480496 68.1055537,10.9001157 73.8563471,10.9001157 L82.2206942,10.9001157 C87.9714876,10.9001157 92.8943306,12.9480496 96.9892231,17.0429421 C101.084116,21.1378347 103.13205,26.0606777 103.13205,31.8114711 L103.13205,44.3575041 L153.318132,44.3575041 L153.318132,31.8114711 C153.318132,26.0606777 155.365091,21.1378347 159.460959,17.0429421 C163.555851,12.9480496 168.478694,10.9001157 174.229488,10.9001157 L182.593835,10.9001157 C188.344628,10.9001157 193.267471,12.9480496 197.362364,17.0429421 C201.457256,21.1378347 203.50519,26.0606777 203.50519,31.8114711 L203.50519,44.3575041 L220.233884,44.3575041 C224.764694,44.3575041 228.685025,46.013405 231.995851,49.3242314 C235.306678,52.6350579 236.958678,56.5553884 236.958678,61.0861983 Z"/>
  </g>
</svg>


<svg id="check-circle" width="256" height="256" viewbox="0 0 256 256">
  <g>
    <path d="M207.161842,102.72156 C207.161842,99.8650788 206.245261,97.5207469 204.41112,95.6866058 L190.48712,81.9163485 C188.550158,79.9793859 186.253809,79.0118838 183.598075,79.0118838 C180.94234,79.0118838 178.645012,79.9803651 176.709029,81.9163485 L114.277726,144.192929 L79.6944232,109.609627 C77.7574606,107.672664 75.461112,106.705162 72.8053776,106.705162 C70.1486639,106.705162 67.8523154,107.673643 65.916332,109.609627 L51.992332,123.379884 C50.1581909,125.214025 49.24161,127.558357 49.24161,130.414838 C49.24161,133.168498 50.1581909,135.464846 51.992332,137.303884 L107.379867,192.691419 C109.31683,194.628382 111.613178,195.595884 114.268913,195.595884 C117.022573,195.595884 119.366905,194.627402 121.303867,192.691419 L204.38566,109.609627 C206.219801,107.775485 207.136382,105.479137 207.136382,102.720581 L207.161842,102.72156 Z M245.720913,127.510373 C245.720913,148.828714 240.468199,168.491137 229.962772,186.496664 C219.457344,204.502191 205.202357,218.757178 187.19683,229.262606 C169.191303,239.768033 149.52888,245.020747 128.210539,245.020747 C106.892199,245.020747 87.2297759,239.768033 69.224249,229.262606 C51.218722,218.757178 36.9637344,204.502191 26.4583071,186.496664 C15.9528797,168.491137 10.700166,148.828714 10.700166,127.510373 C10.700166,106.192033 15.9528797,86.52961 26.4583071,68.524083 C36.9637344,50.518556 51.218722,36.2635685 69.224249,25.7581411 C87.2297759,15.2527137 106.892199,10 128.210539,10 C149.52888,10 169.191303,15.2527137 187.19683,25.7581411 C205.202357,36.2635685 219.458324,50.518556 229.962772,68.524083 C240.468199,86.52961 245.720913,106.192033 245.720913,127.510373 Z" id="Shape"/>
  </g>
</svg>


<svg id="chevron-left" width="256" height="256" viewbox="0 0 256 256">
  <g>
    <path d="M200.6564,51.3835333 L123.03895,129 L200.655417,206.616467 C202.507033,208.468083 203.43235,210.660917 203.43235,213.193983 C203.43235,215.72705 202.507033,217.919883 200.655417,219.7715 L176.390683,244.036233 C174.539067,245.88785 172.346233,246.813167 169.813167,246.813167 C167.279117,246.813167 165.087267,245.88785 163.23565,244.036233 L54.7769333,135.577517 C52.9253167,133.7259 52,131.53405 52,129 C52,126.46595 52.9253167,124.2741 54.7769333,122.422483 L163.23565,13.9637667 C165.087267,12.11215 167.2801,11.1868333 169.813167,11.1868333 C172.347217,11.1868333 174.539067,12.11215 176.390683,13.9637667 L200.655417,38.2285 C202.507033,40.0801167 203.43235,42.27295 203.43235,44.8060167 C203.43235,47.3390833 202.508017,49.5319167 200.6564,51.3835333 Z"/>
  </g>
</svg>


<svg id="chevron-down" width="256" height="256" viewbox="0 0 256 256">
  <g>
    <path d="M200.731183,135.586367 L92.1357833,244.181767 C90.2822,246.03535 88.0864167,246.962633 85.5494167,246.962633 C83.0124167,246.962633 80.8176167,246.03535 78.96305,244.181767 L54.6678333,219.88655 C52.81425,218.032967 51.8869667,215.837183 51.8869667,213.300183 C51.8869667,210.763183 52.81425,208.568383 54.6678333,206.713817 L132.383617,129 L54.6688167,51.2852 C52.8152333,49.4316167 51.88795,47.2358333 51.88795,44.6988333 C51.88795,42.1618333 52.8152333,39.9670333 54.6688167,38.1124667 L78.9640333,13.81725 C80.8176167,11.9636667 83.0134,11.0363833 85.5504,11.0363833 C88.0874,11.0363833 90.2822,11.9636667 92.1367667,13.81725 L200.731183,122.413633 C202.584767,124.267217 203.51205,126.463 203.51205,129 C203.51205,131.537 202.584767,133.7318 200.731183,135.586367 Z" id="chevron-down" transform="translate(127.699508, 128.999508) rotate(90.000000) translate(-127.699508, -128.999508) "/>
  </g>
</svg>


<svg id="chevron-right" width="256" height="256" viewbox="0 0 256 256">
  <g>
    <path d="M200.731183,135.586367 L92.1357833,244.181767 C90.2822,246.03535 88.0864167,246.962633 85.5494167,246.962633 C83.0124167,246.962633 80.8176167,246.03535 78.96305,244.181767 L54.6678333,219.88655 C52.81425,218.032967 51.8869667,215.837183 51.8869667,213.300183 C51.8869667,210.763183 52.81425,208.568383 54.6678333,206.713817 L132.383617,129 L54.6688167,51.2852 C52.8152333,49.4316167 51.88795,47.2358333 51.88795,44.6988333 C51.88795,42.1618333 52.8152333,39.9670333 54.6688167,38.1124667 L78.9640333,13.81725 C80.8176167,11.9636667 83.0134,11.0363833 85.5504,11.0363833 C88.0874,11.0363833 90.2822,11.9636667 92.1367667,13.81725 L200.731183,122.413633 C202.584767,124.267217 203.51205,126.463 203.51205,129 C203.51205,131.537 202.584767,133.7318 200.731183,135.586367 Z"/>
  </g>
</svg>


<svg id="chevron-up" width="256" height="256" viewbox="0 0 256 256">
  <g>
    <path d="M200.731183,135.586367 L92.1357833,244.181767 C90.2822,246.03535 88.0864167,246.962633 85.5494167,246.962633 C83.0124167,246.962633 80.8176167,246.03535 78.96305,244.181767 L54.6678333,219.88655 C52.81425,218.032967 51.8869667,215.837183 51.8869667,213.300183 C51.8869667,210.763183 52.81425,208.568383 54.6678333,206.713817 L132.383617,129 L54.6688167,51.2852 C52.8152333,49.4316167 51.88795,47.2358333 51.88795,44.6988333 C51.88795,42.1618333 52.8152333,39.9670333 54.6688167,38.1124667 L78.9640333,13.81725 C80.8176167,11.9636667 83.0134,11.0363833 85.5504,11.0363833 C88.0874,11.0363833 90.2822,11.9636667 92.1367667,13.81725 L200.731183,122.413633 C202.584767,124.267217 203.51205,126.463 203.51205,129 C203.51205,131.537 202.584767,133.7318 200.731183,135.586367 Z" id="chevron-right" transform="translate(127.699508, 128.999508) rotate(-90.000000) translate(-127.699508, -128.999508) "/>
  </g>
</svg>


<svg id="circle-thin" width="256" height="256" viewbox="0 0 256 256">
  <g>
    <path d="M128,30.6686333 C114.455,30.6686333 101.517,33.2793833 89.173,38.50875 C76.828,43.73025 66.201,50.72175 57.298,59.48325 C48.388,68.24475 41.285,78.68775 35.968,90.827 C30.658,102.96625 27.995,115.6955 27.995,129.006883 C27.995,142.326133 30.65,155.0485 35.968,167.18775 C41.278,179.327 48.388,189.776883 57.298,198.5315 C66.208,207.293 76.828,214.277617 89.173,219.506 C101.518,224.7275 114.463,227.346117 128,227.346117 C141.545,227.346117 154.483,224.735367 166.827,219.506 C179.172,214.2845 189.799,207.293 198.702,198.5315 C207.612,189.77 214.715,179.327 220.032,167.18775 C225.342,155.0485 228.004,142.31925 228.004,129.006883 C228.004,115.687633 225.349,102.96625 220.032,90.827 C214.722,78.68775 207.612,68.2378667 198.702,59.48325 C189.792,50.72175 179.172,43.7371333 166.827,38.50875 C154.483,33.28725 141.538,30.6686333 128,30.6686333 Z M248,129 C248,150.409133 242.637,170.1525 231.905,188.228133 C221.173,206.303767 206.615,220.619133 188.233,231.17325 C169.851,241.727367 149.772,247 128,247 C106.228,247 86.15,241.726383 67.768,231.17325 C49.386,220.620117 34.828,206.30475 24.095,188.228133 C13.362,170.151517 8,150.409133 8,129 C8,107.590867 13.363,87.8475 24.095,69.7708833 C34.827,51.6942667 49.385,37.3798833 67.768,26.82675 C86.151,16.2736167 106.228,11 128,11 C149.772,11 169.85,16.2726333 188.233,26.82675 C206.616,37.3808667 221.173,51.69525 231.905,69.7708833 C242.637,87.8465167 248,107.590867 248,129 Z"/>
  </g>
</svg>


<svg id="close-thin" width="256" height="256" viewbox="0 0 256 256">
  <g>
    <path d="M128,104.4 L37.1355339,13.5355339 L37.1355339,13.5355339 C35.1829124,11.5829124 32.0170876,11.5829124 30.0644661,13.5355339 L13.5355339,30.0644661 L13.5355339,30.0644661 C11.5829124,32.0170876 11.5829124,35.1829124 13.5355339,37.1355339 L104.4,128 L13.5355339,218.864466 L13.5355339,218.864466 C11.5829124,220.817088 11.5829124,223.982912 13.5355339,225.935534 L30.0644661,242.464466 L30.0644661,242.464466 C32.0170876,244.417088 35.1829124,244.417088 37.1355339,242.464466 L128,151.6 L218.864466,242.464466 L218.864466,242.464466 C220.817088,244.417088 223.982912,244.417088 225.935534,242.464466 L242.464466,225.935534 L242.464466,225.935534 C244.417088,223.982912 244.417088,220.817088 242.464466,218.864466 L151.6,128 L242.464466,37.1355339 L242.464466,37.1355339 C244.417088,35.1829124 244.417088,32.0170876 242.464466,30.0644661 L225.935534,13.5355339 L225.935534,13.5355339 C223.982912,11.5829124 220.817088,11.5829124 218.864466,13.5355339 L128,104.4 Z" id="icon-close-thin"/>
  </g>
</svg>


<svg id="contrast" width="256" height="256" viewbox="0 0 256 256">
  <g>
    <path d="M128,10 C193.172875,10 246,62.827125 246,128 C246,193.172875 193.172875,246 128,246 C62.827125,246 10,193.172875 10,128 C10,62.827125 62.827125,10 128,10 Z M39.5,128 C39.5,176.874125 79.125875,216.5 128,216.5 L128,39.5 C79.125875,39.5 39.5,79.125875 39.5,128 Z"/>
  </g>
</svg>


<svg id="close" width="256" height="256" viewbox="0 0 256 256">
  <g>
    <path d="M246,199.912458 C246,205.209877 244.145903,209.712682 240.43771,213.420875 L213.420875,240.43771 C209.712682,244.145903 205.209877,246 199.912458,246 C194.615039,246 190.112233,244.145903 186.40404,240.43771 L128,182.03367 L69.5959596,240.43771 C65.8877666,244.145903 61.3849607,246 56.0875421,246 C50.7901235,246 46.2873176,244.145903 42.5791246,240.43771 L15.5622896,213.420875 C11.8540965,209.712682 10,205.209877 10,199.912458 C10,194.615039 11.8540965,190.112233 15.5622896,186.40404 L73.96633,128 L15.5622896,69.5959596 C11.8540965,65.8877666 10,61.3849607 10,56.0875421 C10,50.7901235 11.8540965,46.2873176 15.5622896,42.5791246 L42.5791246,15.5622896 C46.2873176,11.8540965 50.7901235,10 56.0875421,10 C61.3849607,10 65.8877666,11.8540965 69.5959596,15.5622896 L128,73.96633 L186.40404,15.5622896 C190.112233,11.8540965 194.615039,10 199.912458,10 C205.209877,10 209.712682,11.8540965 213.420875,15.5622896 L240.43771,42.5791246 C244.145903,46.2873176 246,50.7901235 246,56.0875421 C246,61.3849607 244.145903,65.8877666 240.43771,69.5959596 L182.03367,128 L240.43771,186.40404 C244.145903,190.112233 246,194.615039 246,199.912458 Z" id="Shape"/>
  </g>
</svg>


<svg id="equalizer" width="256" height="256" viewbox="0 0 256 256">
  <g>
    <path d="M216.940994,113.25 L220.651398,113.25 C226.773564,113.25 231.782609,108.271875 231.782609,102.1875 L231.782609,65.3125 C231.782609,59.228125 226.773564,54.25 220.651398,54.25 L216.940994,54.25 L216.940994,10 L187.257764,10 L187.257764,54.25 L183.54736,54.25 C177.425194,54.25 172.416149,59.228125 172.416149,65.3125 L172.416149,102.1875 C172.416149,108.271875 177.425194,113.25 183.54736,113.25 L187.257764,113.25 L187.257764,246 L216.940994,246 L216.940994,113.25 Z M187.257764,69 L216.940994,69 L216.940994,98.5 L187.257764,98.5 L187.257764,69 Z M146.443323,201.75 C152.565489,201.75 157.574534,196.771875 157.574534,190.6875 L157.574534,153.8125 C157.574534,147.728125 152.565489,142.75 146.443323,142.75 L142.732919,142.75 L142.732919,10 L113.049689,10 L113.049689,142.75 L109.339286,142.75 C103.21712,142.75 98.2080745,147.728125 98.2080745,153.8125 L98.2080745,190.6875 C98.2080745,196.771875 103.21712,201.75 109.339286,201.75 L113.049689,201.75 L113.049689,246 L142.732919,246 L142.732919,201.75 L146.443323,201.75 Z M113.049689,157.5 L142.732919,157.5 L142.732919,187 L113.049689,187 L113.049689,157.5 Z M72.2352484,113.25 C78.3574146,113.25 83.3664596,108.271875 83.3664596,102.1875 L83.3664596,65.3125 C83.3664596,59.228125 78.3574146,54.25 72.2352484,54.25 L68.5248447,54.25 L68.5248447,10 L38.8416149,10 L38.8416149,54.25 L35.1312112,54.25 C29.009045,54.25 24,59.228125 24,65.3125 L24,102.1875 C24,108.271875 29.009045,113.25 35.1312112,113.25 L38.8416149,113.25 L38.8416149,246 L68.5248447,246 L68.5248447,113.25 L72.2352484,113.25 Z M38.8416149,69 L68.5248447,69 L68.5248447,98.5 L38.8416149,98.5 L38.8416149,69 Z" id="icon-equalizer"/>
  </g>
</svg>


<svg id="download" width="256" height="256" viewbox="0 0 256 256">
  <g>
    <path d="M191.5365,209.548754 C191.5365,207.09128 190.638272,204.96462 188.841817,203.168773 C187.045362,201.372927 184.917981,200.475004 182.459675,200.475004 C180.001368,200.475004 177.873987,201.372927 176.077532,203.168773 C174.281077,204.96462 173.38285,207.09128 173.38285,209.548754 C173.38285,212.006228 174.281077,214.132888 176.077532,215.928734 C177.873987,217.724581 180.001368,218.622504 182.459675,218.622504 C184.917981,218.622504 187.045362,217.724581 188.841817,215.928734 C190.638272,214.132888 191.5365,212.006228 191.5365,209.548754 Z M227.8438,209.548754 C227.8438,207.09128 226.945572,204.96462 225.149117,203.168773 C223.352662,201.372927 221.225281,200.475004 218.766975,200.475004 C216.308668,200.475004 214.181287,201.372927 212.384832,203.168773 C210.588377,204.96462 209.69015,207.09128 209.69015,209.548754 C209.69015,212.006228 210.588377,214.132888 212.384832,215.928734 C214.181287,217.724581 216.308668,218.622504 218.766975,218.622504 C221.225281,218.622504 223.352662,217.724581 225.149117,215.928734 C226.945572,214.132888 227.8438,212.006228 227.8438,209.548754 Z M245.99745,177.790628 L245.99745,223.159379 C245.99745,226.940108 244.673746,230.153728 242.026339,232.800239 C239.378931,235.446749 236.164222,236.770004 232.382212,236.770004 L23.6152375,236.770004 C19.8332271,236.770004 16.6185182,235.446749 13.9711109,232.800239 C11.3237036,230.153728 10,226.940108 10,223.159379 L10,177.790628 C10,174.009899 11.3237036,170.796279 13.9711109,168.149769 C16.6185182,165.503258 19.8332271,164.180003 23.6152375,164.180003 L89.564044,164.180003 L108.710472,183.461722 C114.194387,188.754743 120.623804,191.401253 127.998725,191.401253 C135.373645,191.401253 141.803063,188.754743 147.286978,183.461722 L166.575231,164.180003 L232.382212,164.180003 C236.164222,164.180003 239.378931,165.503258 242.026339,168.149769 C244.673746,170.796279 245.99745,174.009899 245.99745,177.790628 Z M199.904198,97.1193179 C201.511552,100.994565 200.8497,104.302703 197.918642,107.043732 L134.380867,170.559983 C132.678963,172.35583 130.551582,173.253753 127.998725,173.253753 C125.445868,173.253753 123.318487,172.35583 121.616582,170.559983 L58.0788073,107.043732 C55.1477493,104.302703 54.4858974,100.994565 56.0932519,97.1193179 C57.7006063,93.4331069 60.489839,91.5900014 64.4609499,91.5900014 L100.76825,91.5900014 L100.76825,28.0737502 C100.76825,25.6162762 101.666477,23.489616 103.462932,21.6937696 C105.259387,19.8979232 107.386768,19 109.845075,19 L146.152375,19 C148.610682,19 150.738062,19.8979232 152.534517,21.6937696 C154.330972,23.489616 155.2292,25.6162762 155.2292,28.0737502 L155.2292,91.5900014 L191.5365,91.5900014 C195.507611,91.5900014 198.296843,93.4331069 199.904198,97.1193179 Z" id="Shape"/>
  </g>
</svg>


<svg id="exclamation-circle" width="256" height="256" viewbox="0 0 256 256">
  <g>
    <path d="M126.099643,13.4003571 C146.981071,13.4003571 166.239881,18.5451786 183.876071,28.8348214 C201.512262,39.1244643 215.475179,53.087381 225.764821,70.7235714 C236.054464,88.3597619 241.199286,107.618571 241.199286,128.5 C241.199286,149.381429 236.054464,168.640238 225.764821,186.276429 C215.475179,203.912619 201.512262,217.875536 183.876071,228.165179 C166.239881,238.454821 146.981071,243.599643 126.099643,243.599643 C105.218214,243.599643 85.9594048,238.454821 68.3232143,228.165179 C50.6870238,217.875536 36.7241071,203.912619 26.4344643,186.276429 C16.1448214,168.640238 11,149.381429 11,128.5 C11,107.618571 16.1448214,88.3597619 26.4344643,70.7235714 C36.7241071,53.087381 50.6870238,39.1244643 68.3232143,28.8348214 C85.9594048,18.5451786 105.218214,13.4003571 126.099643,13.4003571 Z M145.285714,200.2925 L145.285714,171.815536 C145.285714,170.416726 144.835298,169.241726 143.934464,168.290536 C143.033631,167.339345 141.934167,166.86375 140.636071,166.86375 L111.856964,166.86375 C110.558869,166.86375 109.409048,167.364524 108.4075,168.366071 C107.405952,169.367619 106.905179,170.51744 106.905179,171.815536 L106.905179,200.2925 C106.905179,201.590595 107.405952,202.740417 108.4075,203.741964 C109.409048,204.743512 110.558869,205.244286 111.856964,205.244286 L140.636071,205.244286 C141.934167,205.244286 143.033631,204.76869 143.934464,203.8175 C144.835298,202.86631 145.285714,201.69131 145.285714,200.2925 L145.285714,200.2925 Z M144.983571,148.735179 L147.677679,55.6667857 C147.677679,54.4694048 147.176905,53.571369 146.175357,52.9726786 C145.17381,52.1725595 143.973631,51.7725 142.574821,51.7725 L109.599286,51.7725 C108.200476,51.7725 107.000298,52.1725595 105.99875,52.9726786 C104.997202,53.571369 104.496429,54.4694048 104.496429,55.6667857 L107.047857,148.735179 C107.047857,149.736726 107.548631,150.612381 108.550179,151.362143 C109.551726,152.111905 110.751905,152.486786 112.150714,152.486786 L139.880714,152.486786 C141.279524,152.486786 142.454524,152.111905 143.405714,151.362143 C144.356905,150.612381 144.882857,149.736726 144.983571,148.735179 L144.983571,148.735179 Z"/>
  </g>
</svg>


<svg id="facebook" width="256" height="256" viewbox="0 0 256 256">
  <g>
    <path d="M186.538462,11.7019231 L186.538462,49.1442308 L164.271635,49.1442308 C156.140224,49.1442308 150.65625,50.8461538 147.819712,54.25 C144.983173,57.6538462 143.564904,62.7596154 143.564904,69.5673077 L143.564904,96.3725962 L185.120192,96.3725962 L179.588942,138.353365 L143.564904,138.353365 L143.564904,246 L100.165865,246 L100.165865,138.353365 L64,138.353365 L64,96.3725962 L100.165865,96.3725962 L100.165865,65.4543269 C100.165865,47.8677885 105.082532,34.228766 114.915865,24.5372596 C124.749199,14.8457532 137.844551,10 154.201923,10 C168.100962,10 178.879808,10.5673077 186.538462,11.7019231 Z"/>
  </g>
</svg>


<svg id="map-marker" width="256" height="256" viewbox="0 0 256 256">
  <g>
    <path d="M166.982777,88.6695285 C166.982777,77.8108453 163.142371,68.5410977 155.461559,60.8602858 C147.780747,53.179474 138.511,49.339068 127.652317,49.339068 C116.793633,49.339068 107.523886,53.179474 99.8430739,60.8602858 C92.1622621,68.5410977 88.3218561,77.8108453 88.3218561,88.6695285 C88.3218561,99.5282118 92.1622621,108.797959 99.8430739,116.478771 C107.523886,124.159583 116.793633,127.999989 127.652317,127.999989 C138.511,127.999989 147.780747,124.159583 155.461559,116.478771 C163.142371,108.797959 166.982777,99.5282118 166.982777,88.6695285 L166.982777,88.6695285 Z M206.321842,88.6695285 C206.321842,99.8322319 204.632522,108.998727 201.253883,116.169015 L145.325641,235.089665 C143.685079,238.468305 141.252918,241.132784 138.029157,243.083102 C134.805395,245.03342 131.349317,246.005711 127.660921,245.999975 C123.972525,245.994239 120.516447,245.021948 117.292685,243.083102 C114.068924,241.144256 111.688389,238.479777 110.151079,235.089665 L54.0679591,116.169015 C50.6893197,108.998727 49,99.8322319 49,88.6695285 C49,66.952162 56.68368,48.4126669 72.05104,33.0510432 C87.4183999,17.6894194 105.957895,10.0057394 127.669525,10.0000032 C149.381156,9.99426698 167.920651,17.677947 183.288011,33.0510432 C198.655371,48.4241394 206.339051,66.9636345 206.339051,88.6695285 L206.321842,88.6695285 Z" id="icon-map-marker"/>
  </g>
</svg>


<svg id="github" width="256" height="256" viewbox="0 0 256 256">
  <g>
    <path d="M245.020747,130.453029 C245.020747,156.697992 237.549046,180.301909 222.604664,201.266739 C207.660282,222.231568 188.356266,236.739203 164.690656,244.789643 C161.936996,245.312564 159.921693,244.946324 158.646705,243.6919 C157.371718,242.437477 156.734224,240.868714 156.734224,238.986589 L156.734224,205.89371 C156.734224,195.751585 154.082407,188.327867 148.777793,183.622556 C154.592598,182.994855 159.819851,182.053793 164.46151,180.799369 C169.10317,179.544946 173.896614,177.506141 178.84478,174.682954 C183.791967,171.859768 187.923436,168.383419 191.238207,164.252929 C194.552979,160.12244 197.256697,154.633726 199.347402,147.78483 C201.438108,140.935934 202.48395,133.067635 202.48395,124.179934 C202.48395,111.527983 198.454324,100.758158 190.39605,91.8704564 C194.170091,82.3550539 193.762722,71.6900083 189.171983,59.8753195 C186.315502,58.9342573 182.185012,59.5090788 176.778556,61.6007635 C171.3721,63.6924481 166.680498,65.9917344 162.702772,68.5015602 L156.887967,72.2658091 C147.400963,69.5474025 137.608432,68.1881992 127.510373,68.1881992 C117.412315,68.1881992 107.619784,69.5474025 98.1327801,72.2658091 C96.5003651,71.1151867 94.333278,69.704083 91.6295602,68.0315187 C88.9258423,66.3589544 84.6680498,64.34561 78.8532448,61.993444 C73.0384398,59.641278 68.6523651,58.9352365 65.6940415,59.8762988 C61.2061245,71.6919668 60.8486971,82.3570124 64.6227386,91.8714357 C56.5644647,100.759137 52.5348382,111.528963 52.5348382,124.180913 C52.5348382,133.068614 53.5806805,140.910473 55.6713859,147.70649 C57.7620913,154.502506 60.4403485,159.992199 63.7041992,164.174589 C66.9680498,168.356979 71.0740581,171.859768 76.0212448,174.682954 C80.9684315,177.506141 85.7628548,179.544946 90.4045145,180.799369 C95.0461743,182.053793 100.273427,182.994855 106.088232,183.622556 C102.007685,187.386805 99.5086307,192.771718 98.5910705,199.777295 C96.4484647,200.823137 94.1540747,201.607519 91.7059419,202.129461 C89.2578091,202.651402 86.3504066,202.913842 82.9847137,202.913842 C79.6190207,202.913842 76.2778091,201.78966 72.9630373,199.542274 C69.6482656,197.293909 66.8172448,194.02712 64.4709544,189.73995 C62.5330124,186.393842 60.0594191,183.675436 57.0501743,181.58473 C54.0409295,179.493046 51.5164149,178.238622 49.4766307,177.820481 L46.4164647,177.35044 C44.2738589,177.35044 42.7951867,177.585461 41.9794689,178.056481 C41.163751,178.526523 40.908166,179.127784 41.2146722,179.860266 C41.5201992,180.591768 41.9794689,181.324249 42.5915021,182.055751 C43.2035353,182.787253 43.8664896,183.414954 44.5803651,183.937876 L45.651668,184.722257 C47.8961162,185.7681 50.1141245,187.754025 52.3076515,190.681992 C54.5011784,193.609959 56.1071535,196.275485 57.1275353,198.680531 L58.6571286,202.2881 C59.9830373,206.260929 62.2274855,209.476797 65.3894938,211.933743 C68.5515021,214.390689 71.9690954,215.959452 75.6412946,216.639054 C79.3134938,217.318656 82.85839,217.684896 86.2750041,217.736797 C89.6916183,217.788697 92.522639,217.606556 94.7670871,217.187436 L98.2865228,216.559734 C98.2865228,220.532564 98.3119834,225.185975 98.3629046,230.518988 C98.4138257,235.852 98.4392863,238.674207 98.4392863,238.988548 C98.4392863,240.870672 97.776332,242.439436 96.4504232,243.693859 C95.1245145,244.948282 93.083751,245.314523 90.3300913,244.791602 C66.6644813,236.740183 47.3604647,222.232548 32.416083,201.268697 C17.4717012,180.304846 10,156.697992 10,130.453029 C10,108.600017 15.2536929,88.4460083 25.7600996,69.9910041 C36.2665062,51.536 50.5214938,36.9245643 68.5260415,26.1547386 C86.5305892,15.3849129 106.191054,10 127.510373,10 C148.829693,10 168.491137,15.3849129 186.494705,26.1547386 C204.498274,36.9245643 218.754241,51.5369793 229.260647,69.9919834 C239.767054,88.4469876 245.020747,108.600017 245.020747,130.453029 Z"/>
  </g>
</svg>


<svg id="menu" width="256" height="256" viewbox="0 0 256 256">
  <g>
    <path d="M246,197.166667 L246,216.833333 C246,219.496528 245.02691,221.801215 243.080729,223.747396 C241.134549,225.693576 238.829861,226.666667 236.166667,226.666667 L19.8333333,226.666667 C17.1701389,226.666667 14.8654514,225.693576 12.9192708,223.747396 C10.9730903,221.801215 10,219.496528 10,216.833333 L10,197.166667 C10,194.503472 10.9730903,192.198785 12.9192708,190.252604 C14.8654514,188.306424 17.1701389,187.333333 19.8333333,187.333333 L236.166667,187.333333 C238.829861,187.333333 241.134549,188.306424 243.080729,190.252604 C245.02691,192.198785 246,194.503472 246,197.166667 Z M246,118.5 L246,138.166667 C246,140.829861 245.02691,143.134549 243.080729,145.080729 C241.134549,147.02691 238.829861,148 236.166667,148 L19.8333333,148 C17.1701389,148 14.8654514,147.02691 12.9192708,145.080729 C10.9730903,143.134549 10,140.829861 10,138.166667 L10,118.5 C10,115.836806 10.9730903,113.532118 12.9192708,111.585938 C14.8654514,109.639757 17.1701389,108.666667 19.8333333,108.666667 L236.166667,108.666667 C238.829861,108.666667 241.134549,109.639757 243.080729,111.585938 C245.02691,113.532118 246,115.836806 246,118.5 Z M246,39.8333333 L246,59.5 C246,62.1631944 245.02691,64.4678819 243.080729,66.4140625 C241.134549,68.3602431 238.829861,69.3333333 236.166667,69.3333333 L19.8333333,69.3333333 C17.1701389,69.3333333 14.8654514,68.3602431 12.9192708,66.4140625 C10.9730903,64.4678819 10,62.1631944 10,59.5 L10,39.8333333 C10,37.1701389 10.9730903,34.8654514 12.9192708,32.9192708 C14.8654514,30.9730903 17.1701389,30 19.8333333,30 L236.166667,30 C238.829861,30 241.134549,30.9730903 243.080729,32.9192708 C245.02691,34.8654514 246,37.1701389 246,39.8333333 Z" id="Shape"/>
  </g>
</svg>


<svg id="play-thin" width="256" height="256" viewbox="0 0 256 256">
  <g>
    <path d="M128,246 C62.8303995,246 10,193.1696 10,128 C10,62.8303995 62.8303995,10 128,10 C193.1696,10 246,62.8303995 246,128 C246,193.1696 193.1696,246 128,246 Z M127.5,236 C187.422895,236 236,187.422895 236,127.5 C236,67.5771046 187.422895,19 127.5,19 C67.5771046,19 19,67.5771046 19,127.5 C19,187.422895 67.5771046,236 127.5,236 Z M106.752202,87.4098467 L173.600769,127.518987 C175.968671,128.939728 176.736496,132.011029 175.315755,134.37893 C174.893506,135.082678 174.304517,135.671667 173.600769,136.093916 L106.752202,176.203057 C104.384301,177.623797 101.313,176.855972 99.8922589,174.488071 C99.4260127,173.710994 99.1797235,172.821812 99.1797235,171.915592 L99.1797235,91.6973113 C99.1797235,88.9358876 101.4183,86.6973113 104.179724,86.6973113 C105.085943,86.6973113 105.975125,86.9436005 106.752202,87.4098467 Z" id="Oval"/>
  </g>
</svg>


<svg id="instagram" width="256" height="256" viewbox="0 0 256 256">
  <g>
    <path d="M219.265625,209.432292 L219.265625,109.869792 L198.523438,109.869792 C200.572049,116.322917 201.596354,123.032118 201.596354,129.997396 C201.596354,142.903646 198.318576,154.811198 191.763021,165.720052 C185.207465,176.628906 176.296007,185.258681 165.028646,191.609375 C153.761285,197.960069 141.469618,201.135417 128.153646,201.135417 C107.974826,201.135417 90.7152778,194.195747 76.375,180.316406 C62.0347222,166.437066 54.8645833,149.664062 54.8645833,129.997396 C54.8645833,123.032118 55.8888889,116.322917 57.9375,109.869792 L36.2734375,109.869792 L36.2734375,209.432292 C36.2734375,212.095486 37.1697049,214.323351 38.9622396,216.115885 C40.7547743,217.90842 42.9826389,218.804687 45.6458333,218.804687 L209.893229,218.804687 C212.453993,218.804687 214.65625,217.90842 216.5,216.115885 C218.34375,214.323351 219.265625,212.095486 219.265625,209.432292 Z M175.630208,127.539063 C175.630208,114.837674 170.995226,104.005642 161.72526,95.0429688 C152.455295,86.0802951 141.264757,81.5989583 128.153646,81.5989583 C115.144965,81.5989583 104.005642,86.0802951 94.7356771,95.0429688 C85.4657118,104.005642 80.8307292,114.837674 80.8307292,127.539063 C80.8307292,140.240451 85.4657118,151.072483 94.7356771,160.035156 C104.005642,168.99783 115.144965,173.479167 128.153646,173.479167 C141.264757,173.479167 152.455295,168.99783 161.72526,160.035156 C170.995226,151.072483 175.630208,140.240451 175.630208,127.539063 Z M219.265625,72.2265625 L219.265625,46.875 C219.265625,44.0069444 218.241319,41.5230035 216.192708,39.4231771 C214.144097,37.3233507 211.634549,36.2734375 208.664062,36.2734375 L181.929688,36.2734375 C178.959201,36.2734375 176.449653,37.3233507 174.401042,39.4231771 C172.352431,41.5230035 171.328125,44.0069444 171.328125,46.875 L171.328125,72.2265625 C171.328125,75.1970486 172.352431,77.7065972 174.401042,79.7552083 C176.449653,81.8038194 178.959201,82.828125 181.929688,82.828125 L208.664062,82.828125 C211.634549,82.828125 214.144097,81.8038194 216.192708,79.7552083 C218.241319,77.7065972 219.265625,75.1970486 219.265625,72.2265625 Z M246,40.2682292 L246,215.731771 C246,224.028646 243.029514,231.147569 237.088542,237.088542 C231.147569,243.029514 224.028646,246 215.731771,246 L40.2682292,246 C31.9713542,246 24.8524306,243.029514 18.9114583,237.088542 C12.9704861,231.147569 10,224.028646 10,215.731771 L10,40.2682292 C10,31.9713542 12.9704861,24.8524306 18.9114583,18.9114583 C24.8524306,12.9704861 31.9713542,10 40.2682292,10 L215.731771,10 C224.028646,10 231.147569,12.9704861 237.088542,18.9114583 C243.029514,24.8524306 246,31.9713542 246,40.2682292 Z"/>
  </g>
</svg>


<svg id="question-circle" width="256" height="256" viewbox="0 0 256 256">
  <g>
    <path d="M147.666667,201.75 L147.666667,172.25 C147.666667,170.815972 147.205729,169.638021 146.283854,168.716146 C145.361979,167.794271 144.184028,167.333333 142.75,167.333333 L113.25,167.333333 C111.815972,167.333333 110.638021,167.794271 109.716146,168.716146 C108.794271,169.638021 108.333333,170.815972 108.333333,172.25 L108.333333,201.75 C108.333333,203.184028 108.794271,204.361979 109.716146,205.283854 C110.638021,206.205729 111.815972,206.666667 113.25,206.666667 L142.75,206.666667 C144.184028,206.666667 145.361979,206.205729 146.283854,205.283854 C147.205729,204.361979 147.666667,203.184028 147.666667,201.75 Z M187,98.5 C187,89.4861111 184.157552,81.1380208 178.472656,73.4557292 C172.78776,65.7734375 165.694444,59.8324653 157.192708,55.6328125 C148.690972,51.4331597 139.984375,49.3333333 131.072917,49.3333333 C106.182292,49.3333333 87.1814236,60.2421875 74.0703125,82.0598958 C72.5338542,84.5182292 72.9435764,86.6692708 75.2994792,88.5130208 L95.5807292,103.877604 C96.2977431,104.492187 97.2708333,104.799479 98.5,104.799479 C100.138889,104.799479 101.419271,104.184896 102.341146,102.955729 C107.769965,95.9904514 112.174479,91.2786458 115.554687,88.8203125 C119.037326,86.3619792 123.44184,85.1328125 128.768229,85.1328125 C133.684896,85.1328125 138.063802,86.4644097 141.904948,89.1276042 C145.746094,91.7907986 147.666667,94.8125 147.666667,98.1927083 C147.666667,102.085069 146.642361,105.209201 144.59375,107.565104 C142.545139,109.921007 139.0625,112.225694 134.145833,114.479167 C127.692708,117.347222 121.777344,121.777344 116.39974,127.769531 C111.022135,133.761719 108.333333,140.189236 108.333333,147.052083 L108.333333,152.583333 C108.333333,154.017361 108.794271,155.195312 109.716146,156.117187 C110.638021,157.039062 111.815972,157.5 113.25,157.5 L142.75,157.5 C144.184028,157.5 145.361979,157.039062 146.283854,156.117187 C147.205729,155.195312 147.666667,154.017361 147.666667,152.583333 C147.666667,150.637153 148.767795,148.101997 150.970052,144.977865 C153.172309,141.853733 155.963542,139.318576 159.34375,137.372396 C162.621528,135.528646 165.131076,134.06901 166.872396,132.99349 C168.613715,131.917969 170.969618,130.125434 173.940104,127.615885 C176.91059,125.106337 179.18967,122.648003 180.777344,120.240885 C182.365017,117.833767 183.799045,114.735243 185.079427,110.945312 C186.359809,107.155382 187,103.006944 187,98.5 Z M246,128 C246,149.407986 240.724826,169.151476 230.174479,187.230469 C219.624132,205.309462 205.309462,219.624132 187.230469,230.174479 C169.151476,240.724826 149.407986,246 128,246 C106.592014,246 86.8485243,240.724826 68.7695312,230.174479 C50.6905382,219.624132 36.3758681,205.309462 25.8255208,187.230469 C15.2751736,169.151476 10,149.407986 10,128 C10,106.592014 15.2751736,86.8485243 25.8255208,68.7695312 C36.3758681,50.6905382 50.6905382,36.3758681 68.7695312,25.8255208 C86.8485243,15.2751736 106.592014,10 128,10 C149.407986,10 169.151476,15.2751736 187.230469,25.8255208 C205.309462,36.3758681 219.624132,50.6905382 230.174479,68.7695312 C240.724826,86.8485243 246,106.592014 246,128 Z" id="Shape"/>
  </g>
</svg>


<svg id="screwhead-crds" width="256" height="256" viewbox="0 0 256 256">
  <g>
    <path d="M127.580943,10 C62.6546385,10 10,62.6332815 10,127.609527 C10,192.549734 62.6546385,245.219054 127.580943,245.219054 C192.525268,245.219054 245.215947,192.549734 245.215947,127.609527 C245.215947,62.6332815 192.525268,10 127.580943,10 L127.580943,10 Z M168.984783,193.681891 L126.925945,151.571662 L85.7140495,192.816982 L61.0986367,168.149073 L102.274492,126.939791 L61.7473592,86.4152271 L86.380792,61.7112802 L126.925945,102.2899 L168.101801,61.0986367 L192.753253,85.7485269 L151.613438,126.939791 L193.654257,169.032 L168.984783,193.681891 Z"/>
  </g>
</svg>


<svg id="search" width="256" height="256" viewbox="0 0 256 256">
  <g>
    <path d="M240.698218,209.667105 L184.255946,153.224833 C192.769898,139.230958 197.671022,122.828531 197.671022,105.249835 C197.671022,54.2221374 153.439549,10 102.402516,10 C51.3748181,10 10,51.3748181 10,102.402516 C10,153.439549 54.212802,197.671022 105.249835,197.671022 C122.221726,197.671022 138.110701,193.068633 151.777834,185.077468 L208.518842,241.837146 C214.092119,247.391753 223.08218,247.391753 228.627451,241.837146 L242.714681,227.768588 C248.259952,222.213981 246.24349,215.221712 240.698218,209.67644 L240.698218,209.667105 Z M38.4358519,102.39318 C38.4358519,67.0677488 67.0677488,38.417181 102.39318,38.417181 C137.737282,38.417181 169.216499,69.9057327 169.216499,105.2405 C169.216499,140.575266 140.584602,169.216499 105.2405,169.216499 C69.8963973,169.216499 38.4265165,137.727947 38.4265165,102.39318 L38.4358519,102.39318 Z" id="Shape"/>
  </g>
</svg>


<svg id="twitter" width="256" height="256" viewbox="0 0 256 256">
  <g>
    <path d="M246,54.7614213 C239.311337,64.5448393 231.225042,72.8807107 221.741117,79.7690355 C221.840948,81.1666667 221.890863,83.2631134 221.890863,86.0583756 C221.890863,99.036379 219.994078,111.989425 216.200508,124.917513 C212.406937,137.845601 206.641709,150.249577 198.904822,162.129442 C191.167936,174.009306 181.958545,184.516497 171.27665,193.651015 C160.594755,202.785533 147.716582,210.073181 132.642132,215.513959 C117.567682,220.954738 101.445008,223.675127 84.2741117,223.675127 C57.2199662,223.675127 32.4619289,216.437394 10,201.961929 C13.4940778,202.361252 17.3874788,202.560914 21.680203,202.560914 C44.142132,202.560914 64.1582064,195.672589 81.7284264,181.895939 C71.2461929,181.696277 61.8620981,178.476734 53.5761421,172.23731 C45.2901861,165.997885 39.5998308,158.036379 36.5050761,148.352792 C39.7994924,148.851946 42.8443316,149.101523 45.6395939,149.101523 C49.9323181,149.101523 54.1751269,148.552453 58.3680203,147.454315 C47.1869712,145.158206 37.927665,139.59264 30.5901015,130.757614 C23.2525381,121.922589 19.5837563,111.664975 19.5837563,99.9847716 L19.5837563,99.3857868 C26.3722504,103.179357 33.6598985,105.225888 41.4467005,105.525381 C34.857868,101.132826 29.6167513,95.392555 25.7233503,88.3045685 C21.8299492,81.2165821 19.8832487,73.5296108 19.8832487,65.2436548 C19.8832487,56.4585448 22.0795262,48.322335 26.4720812,40.8350254 C38.5516074,55.7098139 53.251692,67.6146362 70.572335,76.5494924 C87.892978,85.4843486 106.436548,90.4509306 126.203046,91.4492386 C125.404399,87.6556684 125.005076,83.9619289 125.005076,80.3680203 C125.005076,66.9906937 129.722081,55.5850254 139.156091,46.1510152 C148.590102,36.7170051 159.99577,32 173.373096,32 C187.349408,32 199.129442,37.0913706 208.713198,47.2741117 C219.594755,45.177665 229.827411,41.284264 239.411168,35.5939086 C235.717428,47.0744501 228.629442,55.9593909 218.147208,62.248731 C227.431472,61.250423 236.715736,58.7546531 246,54.7614213 Z"/>
  </g>
</svg>


<svg id="usd" width="256" height="256" viewbox="0 0 256 256">
  <g>
    <path d="M189.745026,166.060268 C189.745026,179.493304 185.381782,191.06064 176.655293,200.762277 C167.928804,210.463914 156.593139,216.456101 142.648298,218.738839 L142.648298,241.785714 C142.648298,243.014881 142.253632,244.024554 141.464302,244.814732 C140.674971,245.604911 139.666382,246 138.438534,246 L120.678595,246 C119.538451,246 118.551787,245.582961 117.718605,244.748884 C116.885423,243.914807 116.468831,242.927083 116.468831,241.785714 L116.468831,218.738839 C110.680407,217.948661 105.089315,216.587798 99.6955553,214.65625 C94.3017959,212.724702 89.8508481,210.771205 86.3427119,208.795759 C82.8345757,206.820313 79.5895497,204.71317 76.6076339,202.47433 C73.6257182,200.235491 71.586614,198.589286 70.4903214,197.535714 C69.3940289,196.482143 68.6266241,195.691964 68.1881071,195.165179 C66.6971492,193.321429 66.6094458,191.521577 67.9249968,189.765625 L81.4751729,171.986607 C82.0890967,171.108631 83.0976859,170.581845 84.5009404,170.40625 C85.8164914,170.230655 86.8689323,170.625744 87.6582629,171.591518 L87.9213732,171.854911 C97.8318579,180.546875 108.487822,186.034226 119.889264,188.316964 C123.13429,189.019345 126.379316,189.370536 129.624342,189.370536 C136.728318,189.370536 142.977186,187.482887 148.370945,183.707589 C153.764704,179.932292 156.461584,174.576637 156.461584,167.640625 C156.461584,165.182292 155.803809,162.855655 154.488257,160.660714 C153.172706,158.465774 151.703674,156.622024 150.081161,155.129464 C148.458648,153.636905 145.893324,151.990699 142.385188,150.190848 C138.877051,148.390997 135.982839,146.986235 133.70255,145.976563 C131.422262,144.96689 127.914126,143.540179 123.178142,141.696429 C119.757709,140.291667 117.060829,139.194196 115.087503,138.404018 C113.114176,137.613839 110.417296,136.450521 106.996864,134.914063 C103.576431,133.377604 100.8357,132.016741 98.7746695,130.831473 C96.7136395,129.646205 94.2360183,128.087798 91.3418059,126.15625 C88.4475936,124.224702 86.1015275,122.359003 84.3036077,120.559152 C82.5056879,118.759301 80.5981388,116.608259 78.5809605,114.106027 C76.5637822,111.603795 75.0070468,109.057664 73.9107542,106.467634 C72.8144617,103.877604 71.8935759,100.958333 71.148097,97.7098214 C70.402618,94.4613095 70.0298786,91.0372024 70.0298786,87.4375 C70.0298786,75.3214286 74.3273454,64.6979167 82.9222791,55.5669643 C91.5172128,46.4360119 102.699397,40.5535714 116.468831,37.9196429 L116.468831,14.2142857 C116.468831,13.0729167 116.885423,12.0851935 117.718605,11.2511161 C118.551787,10.4170387 119.538451,10 120.678595,10 L138.438534,10 C139.666382,10 140.674971,10.3950893 141.464302,11.1852679 C142.253632,11.9754464 142.648298,12.985119 142.648298,14.2142857 L142.648298,37.3928571 C147.647392,37.9196429 152.493005,38.9293155 157.185137,40.421875 C161.877269,41.9144345 165.692367,43.3850446 168.630431,44.8337054 C171.568496,46.2823661 174.353079,47.9285714 176.984181,49.7723214 C179.615283,51.6160714 181.325499,52.8891369 182.11483,53.5915179 C182.904161,54.2938988 183.561936,54.9084821 184.088157,55.4352679 C185.579114,57.015625 185.798373,58.6837798 184.745932,60.4397321 L174.089968,79.6674107 C173.388341,80.984375 172.379752,81.686756 171.064201,81.7745536 C169.836353,82.0379464 168.652357,81.7306548 167.512213,80.8526786 C167.249103,80.5892857 166.613253,80.0625 165.604664,79.2723214 C164.596075,78.4821429 162.885858,77.3188244 160.474015,75.7823661 C158.062171,74.2459077 155.496847,72.8411458 152.778041,71.5680804 C150.059235,70.2950149 146.792284,69.1536458 142.977186,68.1439732 C139.162087,67.1343006 135.412767,66.6294643 131.729224,66.6294643 C123.3974,66.6294643 116.600387,68.5171131 111.338182,72.2924107 C106.075978,76.0677083 103.444876,80.9404762 103.444876,86.9107143 C103.444876,89.1934524 103.817615,91.3005952 104.563094,93.2321429 C105.308573,95.1636905 106.602198,96.9854911 108.44397,98.6975446 C110.285741,100.409598 112.017884,101.858259 113.640397,103.043527 C115.26291,104.228795 117.718605,105.589658 121.007483,107.126116 C124.29636,108.662574 126.949388,109.847842 128.966567,110.68192 C130.983745,111.515997 134.053364,112.723214 138.175424,114.303571 C142.823705,116.059524 146.375692,117.442336 148.831388,118.452009 C151.287083,119.461682 154.619813,120.99814 158.829576,123.061384 C163.039339,125.124628 166.350143,126.990327 168.761987,128.658482 C171.17383,130.326637 173.892636,132.521577 176.918403,135.243304 C179.944171,137.96503 182.268311,140.752604 183.890824,143.606027 C185.513337,146.459449 186.894666,149.817708 188.03481,153.680804 C189.174954,157.543899 189.745026,161.670387 189.745026,166.060268 Z" id="Shape"/>
  </g>
</svg>


<svg id="youtube" width="256" height="256" viewbox="0 0 256 256">
  <g>
    <path d="M178.571429,128.285714 C178.571429,125.037202 177.254464,122.666667 174.620536,121.174107 L107.191964,79.03125 C104.470238,77.2752976 101.616815,77.1875 98.6316964,78.7678571 C95.734375,80.3482143 94.2857143,82.8065476 94.2857143,86.1428571 L94.2857143,170.428571 C94.2857143,173.764881 95.734375,176.223214 98.6316964,177.803571 C100.036458,178.505952 101.397321,178.857143 102.714286,178.857143 C104.470238,178.857143 105.962798,178.418155 107.191964,177.540179 L174.620536,135.397321 C177.254464,133.904762 178.571429,131.534226 178.571429,128.285714 Z M246,128.285714 C246,136.714286 245.956101,143.299107 245.868304,148.040179 C245.780506,152.78125 245.407366,158.773438 244.748884,166.016741 C244.090402,173.260045 243.102679,179.735119 241.785714,185.441964 C240.380952,191.85119 237.351935,197.250744 232.698661,201.640625 C228.045387,206.030506 222.601935,208.576637 216.368304,209.279018 C196.877232,211.473958 167.421131,212.571429 128,212.571429 C88.578869,212.571429 59.1227679,211.473958 39.6316964,209.279018 C33.3980655,208.576637 27.9326637,206.030506 23.2354911,201.640625 C18.5383185,197.250744 15.4873512,191.85119 14.0825893,185.441964 C12.8534226,179.735119 11.9095982,173.260045 11.2511161,166.016741 C10.5926339,158.773438 10.219494,152.78125 10.1316964,148.040179 C10.0438988,143.299107 10,136.714286 10,128.285714 C10,119.857143 10.0438988,113.272321 10.1316964,108.53125 C10.219494,103.790179 10.5926339,97.7979911 11.2511161,90.5546875 C11.9095982,83.3113839 12.8973214,76.8363095 14.2142857,71.1294643 C15.6190476,64.7202381 18.6480655,59.3206845 23.3013393,54.9308036 C27.9546131,50.5409226 33.3980655,47.9947917 39.6316964,47.2924107 C59.1227679,45.0974702 88.578869,44 128,44 C167.421131,44 196.877232,45.0974702 216.368304,47.2924107 C222.601935,47.9947917 228.067336,50.5409226 232.764509,54.9308036 C237.461682,59.3206845 240.512649,64.7202381 241.917411,71.1294643 C243.146577,76.8363095 244.090402,83.3113839 244.748884,90.5546875 C245.407366,97.7979911 245.780506,103.790179 245.868304,108.53125 C245.956101,113.272321 246,119.857143 246,128.285714 Z"/>
  </g>
</svg></svg>