<?xml version="1.0" encoding="UTF-8"?>
<svg width="801px" height="116px" viewBox="0 0 801 116" version="1.1" xmlns="http://www.w3.org/2000/svg" xmlns:xlink="http://www.w3.org/1999/xlink">
    <!-- Generator: Sketch 42 (36781) - http://www.bohemiancoding.com/sketch -->
    <title>logo</title>
    <desc>Created with Sketch.</desc>
    <defs></defs>
    <g id="Page-1" stroke="none" stroke-width="1" fill="none" fill-rule="evenodd">
        <g id="logo" fill-rule="nonzero" fill="#000000">
            <path d="M791.681,69.646 C781.699,62.436 769.081,61.328 757.435,58.416 C753.969,57.307 749.81,56.475 748.007,53.009 C748.007,47.047 755.217,46.076 759.653,46.908 C763.812,47.324 765.615,51.622 767.556,54.672 C777.4,54.811 787.382,54.811 797.227,54.672 C795.84,48.155 793.76,41.223 788.214,37.064 C777.954,28.884 763.95,28.19 751.334,28.606 C737.746,29.161 722.495,34.568 717.227,48.155 C717.782,32.211 717.088,16.266 717.642,0.322 L684.505,0.322 C684.505,13.078 684.366,25.695 684.644,38.45 C672.72,25.417 649.982,25.001 637.782,37.895 C631.681,43.857 628.353,51.898 626.412,59.94 C626.136,51.343 625.304,41.361 617.678,35.815 C607.834,28.882 595.217,28.744 583.709,28.466 C571.23,28.882 557.644,29.575 547.521,37.617 C541.975,41.915 540.867,49.125 538.509,55.364 C534.488,42.747 522.981,33.596 510.363,30.546 C491.507,25.693 469.046,28.882 455.874,44.272 L455.874,28.605 C449.636,28.466 443.119,28.466 437.573,31.794 C431.888,34.983 428.838,40.945 425.927,46.491 C426.066,41.222 426.066,36.093 426.066,30.824 L395.84,30.824 C395.84,45.659 395.701,60.495 395.979,75.33 C385.996,62.99 369.497,61.882 355.216,58.276 C351.611,57.028 345.372,55.78 346.758,50.651 C349.115,46.353 354.8,46.353 358.959,47.323 C362.703,48.016 364.089,52.037 365.891,54.81 C375.735,54.949 385.718,54.81 395.562,54.81 C394.175,47.878 391.818,40.529 385.579,36.37 C374.349,28.467 359.652,28.051 346.48,29.021 C334.834,30.269 320.969,34.844 316.532,46.768 C315.561,53.977 313.759,62.296 318.473,68.536 C323.464,75.469 332.199,78.241 340.241,80.182 C347.59,82.123 355.354,82.539 362.148,85.867 C365.752,87.254 366.169,92.661 363.257,94.88 C359.375,98.068 353.551,97.93 349.115,95.988 C345.51,94.602 344.401,90.442 342.876,87.254 C334.696,87.115 326.516,87.254 318.335,87.254 C317.503,81.431 316.255,75.053 311.402,71.171 C300.31,61.466 284.782,61.466 271.471,57.028 C268.837,56.058 264.4,53.978 266.202,50.512 C268.143,46.075 274.244,46.075 278.264,47.046 C282.008,47.878 283.394,51.76 285.335,54.533 C293.793,54.533 302.25,54.533 310.708,54.81 C312.788,55.781 314.035,53.701 314.312,52.037 C313.341,41.916 305.022,33.735 295.04,31.24 C279.789,27.219 262.596,27.081 248.177,34.013 C240.135,37.757 235.283,45.798 234.451,54.533 C230.014,43.303 220.309,34.706 208.801,31.379 C189.252,25.417 165.404,28.467 151.539,44.69 C151.678,39.421 151.678,34.014 151.678,28.745 C145.577,28.606 139.199,28.606 133.792,31.934 C127.691,35.123 124.502,41.64 121.868,47.601 C122.007,42.055 122.007,36.509 121.868,30.963 L92.059,30.963 C92.059,40.807 91.92,50.651 92.336,60.357 C90.395,51.344 86.097,42.471 78.333,37.202 C67.657,29.715 54.069,27.774 41.452,28.744 C29.251,29.715 16.911,34.567 9.147,44.273 C3.882,50.513 1.387,58.416 0,66.319 L0,78.658 C1.109,87.671 4.575,96.544 11.23,102.783 C18.44,110.27 28.561,113.597 38.405,115.539 L54.35,115.539 C62.253,114.568 70.294,112.627 77.088,108.19 C85.13,103.337 89.705,94.88 92.339,86.284 C92.062,95.296 92.2,104.447 92.2,113.459 C103.153,113.459 114.106,113.598 125.198,113.459 C125.198,103.477 125.059,93.633 125.198,83.65 C125.475,77.411 126.169,70.617 130.605,65.903 C134.21,62.159 139.617,61.605 144.47,60.634 C142.668,72.696 142.806,85.867 149.6,96.405 C156.671,108.329 170.536,114.152 183.707,115.539 L197.294,115.539 C211.713,114.291 226.133,106.804 232.926,93.494 C234.867,97.792 236.67,102.228 240.136,105.418 C247.345,112.073 257.328,114.568 266.757,115.4 L282.008,115.4 C294.487,114.291 308.351,110.547 315.423,99.178 C321.662,109.438 333.447,113.736 344.816,115.4 L364.088,115.4 C376.15,113.875 389.183,109.854 396.116,98.901 C395.977,103.754 395.977,108.467 395.977,113.32 L428.976,113.32 C429.669,99.456 427.173,85.313 430.917,71.726 C433.135,64.1 441.315,61.189 448.387,60.496 C446.584,72.835 446.723,86.423 453.933,97.099 C461.142,108.468 474.591,114.014 487.486,115.401 L501.073,115.401 C514.384,114.153 527.555,107.914 535.042,96.406 C536.706,100.427 538.231,104.725 541.559,107.636 C545.996,112.074 552.235,114.014 558.197,115.262 L572.34,115.262 C580.797,114.153 588.562,110.271 595.356,105.141 C595.772,107.775 596.327,110.548 596.881,113.182 L631.543,113.182 C629.463,109.855 626.689,106.665 626.689,102.645 C626.412,97.099 626.689,91.692 626.55,86.146 C628.491,92.247 630.571,98.486 634.869,103.338 C639.999,109.855 647.902,113.32 655.805,115.262 L668.145,115.262 C676.326,114.291 682.98,109.023 688.111,102.922 L688.111,113.182 L717.92,113.182 C717.92,108.745 717.92,104.448 717.781,100.011 C724.991,109.716 736.776,114.291 748.423,115.262 L763.674,115.262 C773.38,114.291 783.501,112.35 791.404,106.25 C796.257,102.645 799.029,97.099 800.416,91.275 L800.416,82.541 C798.752,77.688 796.118,72.696 791.681,69.646 Z M92.201,81.293 L60.034,81.293 C58.925,84.204 58.093,87.255 56.152,89.75 C51.022,95.573 40.208,94.326 36.325,87.671 C33.552,83.234 32.997,77.689 32.859,72.558 C32.998,66.735 33.552,60.496 37.157,55.505 C41.455,49.404 51.715,49.127 56.29,55.089 C57.815,57.307 58.37,59.942 59.202,62.437 L92.201,62.437 L92.201,81.293 Z M200.347,88.642 C196.049,95.02 185.234,95.159 180.798,88.781 C176.361,82.542 176.084,74.361 176.777,67.012 C177.609,60.496 180.659,52.732 187.869,51.345 C191.335,50.513 195.356,51.068 198.129,53.564 C203.12,58.001 204.368,64.933 204.645,71.311 C204.367,77.134 203.952,83.512 200.347,88.642 Z M270.225,96.683 C265.927,95.574 264.125,91.414 263.154,87.533 C253.864,87.394 244.575,87.533 235.286,87.533 C236.95,81.016 237.643,74.361 237.366,67.567 C246.101,79.352 261.629,80.462 274.801,83.374 C278.822,84.482 284.783,85.453 285.338,90.583 C284.645,97.515 275.633,98.624 270.225,96.683 Z M508.146,73.806 C507.869,79.213 507.037,85.036 503.432,89.334 C498.579,95.296 487.765,94.604 483.882,87.671 C480.139,81.016 479.584,72.974 480.555,65.626 C481.387,59.525 484.714,52.593 491.231,51.067 C495.113,50.097 499.412,50.928 502.184,53.84 C507.452,59.248 508.423,66.873 508.146,73.806 Z M541.144,73.528 C541.283,67.982 541.005,62.436 538.788,57.306 C549.464,56.197 560.14,56.89 570.815,56.751 C572.202,53.839 573.588,50.374 577.054,49.542 C581.907,48.294 588.284,48.017 592.166,51.899 C594.523,54.533 593.137,58.554 590.226,59.941 C584.957,62.575 578.857,62.713 573.034,63.545 C561.941,64.655 550.156,66.181 541.144,73.528 Z M590.364,91.553 C586.343,97.376 577.885,98.347 571.924,95.296 C568.735,93.633 567.903,89.334 569.705,86.423 C571.508,83.373 575.112,82.402 578.163,81.57 C583.432,80.322 588.561,79.213 593.691,77.411 C593.275,82.125 593.275,87.394 590.364,91.553 Z M683.119,84.62 C679.653,92.523 666.897,94.742 661.629,87.393 C658.025,82.402 657.886,75.747 658.302,69.785 C658.718,63.962 661.074,57.029 667.175,54.95 C672.86,52.732 680.07,54.95 682.842,60.635 C686.586,67.982 686.586,77.272 683.119,84.62 Z M764.645,95.435 C760.486,98.208 754.801,98.208 750.503,95.851 C747.175,94.188 746.204,90.444 744.957,87.394 C735.806,87.533 726.655,87.394 717.504,87.394 C717.504,79.352 717.643,71.45 717.365,63.408 C721.248,72.836 730.953,77.828 740.519,79.768 C748.422,81.987 756.88,82.264 764.228,86.007 C768.111,87.81 767.973,93.355 764.645,95.435 Z" id="Shape"></path>
        </g>
    </g>
</svg>